<svg width="114px" height="114px" viewBox="0 0 114 114" version="1.1" xmlns="http://www.w3.org/2000/svg" xmlns:xlink="http://www.w3.org/1999/xlink">
    <g id="Laning-page" stroke="none" stroke-width="1" fill="none" fill-rule="evenodd">
        <g id="logo-pro">
            <path d="M69.7246464,14 C69.2511608,15.9221143 69,17.9317263 69,20 C69,33.8071187 80.1928813,45 94,45 C96.0682737,45 98.0778857,44.7488392 100,44.2753536 L100,93 C100,104.59798 90.5979797,114 79,114 L21,114 C9.40202025,114 -1.27905118e-14,104.59798 -1.42108547e-14,93 L-7.10542736e-15,35 C-8.52577023e-15,23.4020203 9.40202025,14 21,14 L69.7246464,14 Z" id="Combined-Shape" fill="#FFFFFF"></path>
            <circle id="Oval" fill="#FFFFFF" cx="94" cy="20" r="20"></circle>
            <path d="M46.0116279,59.6499366 C38.0503245,58.0284904 32.0581395,50.9663527 32.0581395,42.5 C32.0581395,32.8350169 39.8671265,25 49.5,25 C59.1328735,25 66.9418605,32.8350169 66.9418605,42.5 C66.9418605,50.9663527 60.9496755,58.0284904 52.9883721,59.6499366 L52.9883721,67.875 L68.0232558,67.875 C74.6506728,67.875 80.0232558,73.247583 80.0232558,79.875 L80.0232558,81.59747 C84.0878804,83.0388974 87,86.9282341 87,91.5 C87,97.2989899 82.3146078,102 76.5348837,102 C70.7551596,102 66.0697674,97.2989899 66.0697674,91.5 C66.0697674,86.9282341 68.9818871,83.0388974 73.0465116,81.59747 L73.0465116,79.875 C73.0465116,77.1135763 70.8079354,74.875 68.0465116,74.875 L52.9883721,74.875 L52.9883721,81.59747 C57.0529966,83.0388974 59.9651163,86.9282341 59.9651163,91.5 C59.9651163,97.2989899 55.2797241,102 49.5,102 C43.7202759,102 39.0348837,97.2989899 39.0348837,91.5 C39.0348837,86.9282341 41.9470034,83.0388974 46.0116279,81.59747 L46.0116279,74.875 L30.9534884,74.875 C28.1920646,74.875 25.9534884,77.1135763 25.9534884,79.875 L25.9534884,81.59747 C30.0181129,83.0388974 32.9302326,86.9282341 32.9302326,91.5 C32.9302326,97.2989899 28.2448404,102 22.4651163,102 C16.6853922,102 12,97.2989899 12,91.5 C12,86.9282341 14.9121196,83.0388974 18.9767442,81.59747 L18.9767442,79.875 C18.9767442,73.247583 24.3493272,67.875 30.9767442,67.875 L46.0116279,67.875 L46.0116279,59.6499366 Z M40.9865639,43.4412954 L44.3925986,40.0352607 C44.9034589,39.5244005 44.9034589,38.6961323 44.3925986,38.1852721 C43.8817384,37.6744118 43.0534702,37.6744118 42.54261,38.1852721 L38.6946335,42.0332485 C37.9135849,42.8142971 37.9135849,44.080627 38.6946335,44.8616756 L39.1304086,45.2974507 L42.5189712,48.6860133 C43.0315343,49.1985764 43.8625634,49.1985764 44.3751265,48.6860133 C44.8876896,48.1734502 44.8876896,47.3424211 44.3751265,46.829858 L40.9865639,43.4412954 Z M58.1373916,43.4412954 L54.748829,46.829858 C54.2362658,47.3424211 54.2362658,48.1734502 54.748829,48.6860133 C55.2613921,49.1985764 56.0924211,49.1985764 56.6049843,48.6860133 L59.9935469,45.2974507 L60.429322,44.8616756 C61.2103705,44.080627 61.2103705,42.8142971 60.429322,42.0332485 L56.5813455,38.1852721 C56.0704853,37.6744118 55.2422171,37.6744118 54.7313569,38.1852721 C54.2204966,38.6961323 54.2204966,39.5244005 54.7313569,40.0352607 L58.1373916,43.4412954 Z M51.9979347,35.1393817 C51.9972351,35.1391936 51.9965353,35.1390061 51.9958353,35.1388192 C51.2988367,34.9526794 50.5829116,35.3668123 50.3967719,36.0638109 L46.7833947,49.5940693 C46.5968542,50.2925686 47.0111754,51.0101961 47.7093634,51.1978986 C47.710063,51.1980867 47.7107628,51.1982742 47.7114628,51.1984611 C48.4084614,51.3846009 49.1243865,50.9704679 49.3105262,50.2734693 L52.9239034,36.7432109 C53.1104439,36.0447117 52.6961227,35.3270842 51.9979347,35.1393817 Z M49.5,95.875 C51.9082184,95.875 53.8604651,93.9162458 53.8604651,91.5 C53.8604651,89.0837542 51.9082184,87.125 49.5,87.125 C47.0917816,87.125 45.1395349,89.0837542 45.1395349,91.5 C45.1395349,93.9162458 47.0917816,95.875 49.5,95.875 Z M76.5348837,95.875 C78.9431021,95.875 80.8953488,93.9162458 80.8953488,91.5 C80.8953488,89.0837542 78.9431021,87.125 76.5348837,87.125 C74.1266653,87.125 72.1744186,89.0837542 72.1744186,91.5 C72.1744186,93.9162458 74.1266653,95.875 76.5348837,95.875 Z M22.4651163,95.875 C24.8733347,95.875 26.8255814,93.9162458 26.8255814,91.5 C26.8255814,89.0837542 24.8733347,87.125 22.4651163,87.125 C20.0568979,87.125 18.1046512,89.0837542 18.1046512,91.5 C18.1046512,93.9162458 20.0568979,95.875 22.4651163,95.875 Z" id="Combined-Shape" fill="#FA6400"></path>
            <path d="M97,23 L97,29 C97,30.6568542 95.6568542,32 94,32 C92.3431458,32 91,30.6568542 91,29 L91,23 L85,23 C83.3431458,23 82,21.6568542 82,20 C82,18.3431458 83.3431458,17 85,17 L91,17 L91,11 C91,9.34314575 92.3431458,8 94,8 C95.6568542,8 97,9.34314575 97,11 L97,17 L103,17 C104.656854,17 106,18.3431458 106,20 C106,21.6568542 104.656854,23 103,23 L97,23 Z" id="Combined-Shape" fill="#FA6400"></path>
        </g>
    </g>
</svg>
