<?xml version="1.0" encoding="UTF-8"?>
<svg width="1536px" height="1536px" viewBox="0 0 1536 1536" version="1.1" xmlns="http://www.w3.org/2000/svg" xmlns:xlink="http://www.w3.org/1999/xlink">
    <!-- Generator: Sketch 52.6 (67491) - http://www.bohemiancoding.com/sketch -->
    <title>dislike</title>
    <desc>Created with Sketch.</desc>
    <g id="Page-1" stroke="none" stroke-width="1" fill="none" fill-rule="evenodd">
        <g id="dislike" fill="#F91A47" fill-rule="nonzero">
            <path d="M1134,1101 C1139.333,1117.667 1138,1133.833 1130,1149.5 C1122,1165.167 1109.667,1175.667 1093,1181 C1076.333,1186.333 1060,1185 1044,1177 C1028,1169 1017.333,1156.333 1012,1139 C995.333,1085.667 964.5,1042.5 919.5,1009.5 C874.5,976.5 824,960 768,960 C712,960 661.5,976.5 616.5,1009.5 C571.5,1042.5 540.667,1085.667 524,1139 C518.667,1156.333 508.167,1169 492.5,1177 C476.833,1185 460.667,1186.333 444,1181 C426.667,1175.667 414,1165.167 406,1149.5 C398,1133.833 396.667,1117.667 402,1101 C426.667,1020.333 472.667,955.333 540,906 C607.333,856.667 683.333,832 768,832 C852.667,832 928.667,856.667 996,906 C1063.333,955.333 1109.333,1020.333 1134,1101 Z M640,512 C640,547.333 627.5,577.5 602.5,602.5 C577.5,627.5 547.333,640 512,640 C476.667,640 446.5,627.5 421.5,602.5 C396.5,577.5 384,547.333 384,512 C384,476.667 396.5,446.5 421.5,421.5 C446.5,396.5 476.667,384 512,384 C547.333,384 577.5,396.5 602.5,421.5 C627.5,446.5 640,476.667 640,512 Z M1152,512 C1152,547.333 1139.5,577.5 1114.5,602.5 C1089.5,627.5 1059.333,640 1024,640 C988.667,640 958.5,627.5 933.5,602.5 C908.5,577.5 896,547.333 896,512 C896,476.667 908.5,446.5 933.5,421.5 C958.5,396.5 988.667,384 1024,384 C1059.333,384 1089.5,396.5 1114.5,421.5 C1139.5,446.5 1152,476.667 1152,512 Z M1408,768 C1408,681.333 1391,598.5 1357,519.5 C1323,440.5 1277.5,372.5 1220.5,315.5 C1163.5,258.5 1095.5,213 1016.5,179 C937.5,145 854.667,128 768,128 C681.333,128 598.5,145 519.5,179 C440.5,213 372.5,258.5 315.5,315.5 C258.5,372.5 213,440.5 179,519.5 C145,598.5 128,681.333 128,768 C128,854.667 145,937.5 179,1016.5 C213,1095.5 258.5,1163.5 315.5,1220.5 C372.5,1277.5 440.5,1323 519.5,1357 C598.5,1391 681.333,1408 768,1408 C854.667,1408 937.5,1391 1016.5,1357 C1095.5,1323 1163.5,1277.5 1220.5,1220.5 C1277.5,1163.5 1323,1095.5 1357,1016.5 C1391,937.5 1408,854.667 1408,768 Z M1536,768 C1536,907.333 1501.667,1035.833 1433,1153.5 C1364.333,1271.167 1271.167,1364.333 1153.5,1433 C1035.833,1501.667 907.333,1536 768,1536 C628.667,1536 500.167,1501.667 382.5,1433 C264.833,1364.333 171.667,1271.167 103,1153.5 C34.333,1035.833 0,907.333 0,768 C0,628.667 34.333,500.167 103,382.5 C171.667,264.833 264.833,171.667 382.5,103 C500.167,34.333 628.667,0 768,0 C907.333,0 1035.833,34.333 1153.5,103 C1271.167,171.667 1364.333,264.833 1433,382.5 C1501.667,500.167 1536,628.667 1536,768 Z" id="Shape"></path>
        </g>
    </g>
</svg>