<?xml version="1.0" encoding="UTF-8"?>
<svg width="1536px" height="1536px" viewBox="0 0 1536 1536" version="1.1" xmlns="http://www.w3.org/2000/svg" xmlns:xlink="http://www.w3.org/1999/xlink">
    <!-- Generator: Sketch 52.6 (67491) - http://www.bohemiancoding.com/sketch -->
    <title>like</title>
    <desc>Created with Sketch.</desc>
    <g id="Page-1" stroke="none" stroke-width="1" fill="none" fill-rule="evenodd">
        <g id="like" fill="#45A8FC" fill-rule="nonzero">
            <path d="M1134,947 C1109.333,1027.667 1063.333,1092.667 996,1142 C928.667,1191.333 852.667,1216 768,1216 C683.333,1216 607.333,1191.333 540,1142 C472.667,1092.667 426.667,1027.667 402,947 C396.667,930.333 398,914.167 406,898.5 C414,882.833 426.667,872.333 444,867 C460.667,861.667 476.833,863 492.5,871 C508.167,879 518.667,891.667 524,909 C540.667,962.333 571.5,1005.5 616.5,1038.5 C661.5,1071.5 712,1088 768,1088 C824,1088 874.5,1071.5 919.5,1038.5 C964.5,1005.5 995.333,962.333 1012,909 C1017.333,891.667 1028,879 1044,871 C1060,863 1076.333,861.667 1093,867 C1109.667,872.333 1122,882.833 1130,898.5 C1138,914.167 1139.333,930.333 1134,947 Z M640,512 C640,547.333 627.5,577.5 602.5,602.5 C577.5,627.5 547.333,640 512,640 C476.667,640 446.5,627.5 421.5,602.5 C396.5,577.5 384,547.333 384,512 C384,476.667 396.5,446.5 421.5,421.5 C446.5,396.5 476.667,384 512,384 C547.333,384 577.5,396.5 602.5,421.5 C627.5,446.5 640,476.667 640,512 Z M1152,512 C1152,547.333 1139.5,577.5 1114.5,602.5 C1089.5,627.5 1059.333,640 1024,640 C988.667,640 958.5,627.5 933.5,602.5 C908.5,577.5 896,547.333 896,512 C896,476.667 908.5,446.5 933.5,421.5 C958.5,396.5 988.667,384 1024,384 C1059.333,384 1089.5,396.5 1114.5,421.5 C1139.5,446.5 1152,476.667 1152,512 Z M1408,768 C1408,681.333 1391,598.5 1357,519.5 C1323,440.5 1277.5,372.5 1220.5,315.5 C1163.5,258.5 1095.5,213 1016.5,179 C937.5,145 854.667,128 768,128 C681.333,128 598.5,145 519.5,179 C440.5,213 372.5,258.5 315.5,315.5 C258.5,372.5 213,440.5 179,519.5 C145,598.5 128,681.333 128,768 C128,854.667 145,937.5 179,1016.5 C213,1095.5 258.5,1163.5 315.5,1220.5 C372.5,1277.5 440.5,1323 519.5,1357 C598.5,1391 681.333,1408 768,1408 C854.667,1408 937.5,1391 1016.5,1357 C1095.5,1323 1163.5,1277.5 1220.5,1220.5 C1277.5,1163.5 1323,1095.5 1357,1016.5 C1391,937.5 1408,854.667 1408,768 Z M1536,768 C1536,907.333 1501.667,1035.833 1433,1153.5 C1364.333,1271.167 1271.167,1364.333 1153.5,1433 C1035.833,1501.667 907.333,1536 768,1536 C628.667,1536 500.167,1501.667 382.5,1433 C264.833,1364.333 171.667,1271.167 103,1153.5 C34.333,1035.833 0,907.333 0,768 C0,628.667 34.333,500.167 103,382.5 C171.667,264.833 264.833,171.667 382.5,103 C500.167,34.333 628.667,0 768,0 C907.333,0 1035.833,34.333 1153.5,103 C1271.167,171.667 1364.333,264.833 1433,382.5 C1501.667,500.167 1536,628.667 1536,768 Z" id="Shape"></path>
        </g>
    </g>
</svg>