<?xml version="1.0" encoding="UTF-8"?>
<svg width="1536px" height="1536px" viewBox="0 0 1536 1536" version="1.1" xmlns="http://www.w3.org/2000/svg" xmlns:xlink="http://www.w3.org/1999/xlink">
    <!-- Generator: Sketch 52.6 (67491) - http://www.bohemiancoding.com/sketch -->
    <title>neutral</title>
    <desc>Created with Sketch.</desc>
    <g id="Page-1" stroke="none" stroke-width="1" fill="none" fill-rule="evenodd">
        <g id="neutral" fill="#D5C40D" fill-rule="nonzero">
            <path d="M1152,960 C1152,977.333333 1145.66667,992.333333 1133,1005 C1120.33333,1017.66667 1105.33333,1024 1088,1024 L448,1024 C430.666667,1024 415.666667,1017.66667 403,1005 C390.333333,992.333333 384,977.333333 384,960 C384,942.666667 390.333333,927.666667 403,915 C415.666667,902.333333 430.666667,896 448,896 L1088,896 C1105.33333,896 1120.33333,902.333333 1133,915 C1145.66667,927.666667 1152,942.666667 1152,960 Z M640,512 C640,547.333333 627.5,577.5 602.5,602.5 C577.5,627.5 547.333333,640 512,640 C476.666667,640 446.5,627.5 421.5,602.5 C396.5,577.5 384,547.333333 384,512 C384,476.666667 396.5,446.5 421.5,421.5 C446.5,396.5 476.666667,384 512,384 C547.333333,384 577.5,396.5 602.5,421.5 C627.5,446.5 640,476.666667 640,512 Z M1152,512 C1152,547.333333 1139.5,577.5 1114.5,602.5 C1089.5,627.5 1059.33333,640 1024,640 C988.666667,640 958.5,627.5 933.5,602.5 C908.5,577.5 896,547.333333 896,512 C896,476.666667 908.5,446.5 933.5,421.5 C958.5,396.5 988.666667,384 1024,384 C1059.33333,384 1089.5,396.5 1114.5,421.5 C1139.5,446.5 1152,476.666667 1152,512 Z M1408,768 C1408,681.333333 1391,598.5 1357,519.5 C1323,440.5 1277.5,372.5 1220.5,315.5 C1163.5,258.5 1095.5,213 1016.5,179 C937.5,145 854.666667,128 768,128 C681.333333,128 598.5,145 519.5,179 C440.5,213 372.5,258.5 315.5,315.5 C258.5,372.5 213,440.5 179,519.5 C145,598.5 128,681.333333 128,768 C128,854.666667 145,937.5 179,1016.5 C213,1095.5 258.5,1163.5 315.5,1220.5 C372.5,1277.5 440.5,1323 519.5,1357 C598.5,1391 681.333333,1408 768,1408 C854.666667,1408 937.5,1391 1016.5,1357 C1095.5,1323 1163.5,1277.5 1220.5,1220.5 C1277.5,1163.5 1323,1095.5 1357,1016.5 C1391,937.5 1408,854.666667 1408,768 Z M1536,768 C1536,907.333333 1501.66667,1035.83333 1433,1153.5 C1364.33333,1271.16667 1271.16667,1364.33333 1153.5,1433 C1035.83333,1501.66667 907.333333,1536 768,1536 C628.666667,1536 500.166667,1501.66667 382.5,1433 C264.833333,1364.33333 171.666667,1271.16667 103,1153.5 C34.3333333,1035.83333 0,907.333333 0,768 C0,628.666667 34.3333333,500.166667 103,382.5 C171.666667,264.833333 264.833333,171.666667 382.5,103 C500.166667,34.3333333 628.666667,0 768,0 C907.333333,0 1035.83333,34.3333333 1153.5,103 C1271.16667,171.666667 1364.33333,264.833333 1433,382.5 C1501.66667,500.166667 1536,628.666667 1536,768 Z" id="Shape"></path>
        </g>
    </g>
</svg>