<svg width="20" height="20" viewBox="0 0 20 20" fill="none" xmlns="http://www.w3.org/2000/svg">
<path fill-rule="evenodd" clip-rule="evenodd" d="M8 1C6.89543 1 6 1.89543 6 3V5H2C0.895431 5 0 5.89543 0 7V18C0 19.1046 0.895431 20 2 20H18C19.1046 20 20 19.1046 20 18V7C20 5.89543 19.1046 5 18 5H14V3C14 1.89543 13.1046 1 12 1H8ZM15.5 11.5C15.5 14.5376 13.0376 17 10 17C6.96243 17 4.5 14.5376 4.5 11.5C4.5 8.46243 6.96243 6 10 6C13.0376 6 15.5 8.46243 15.5 11.5ZM10 15C11.933 15 13.5 13.433 13.5 11.5C13.5 9.567 11.933 8 10 8C8.067 8 6.5 9.567 6.5 11.5C6.5 13.433 8.067 15 10 15Z" fill="white"/>
</svg>
