<svg width="19" height="19" viewBox="0 0 19 19" fill="none" xmlns="http://www.w3.org/2000/svg">
<path fill-rule="evenodd" clip-rule="evenodd" d="M16.6104 10.5025C16.6104 10.2161 16.7073 9.92965 16.7073 9.54774C16.7073 9.16583 16.7073 8.8794 16.6104 8.59297L18.6456 6.96985C18.8394 6.77889 18.8394 6.58794 18.7425 6.39699L16.8042 3.05528C16.7073 2.9598 16.5135 2.86432 16.2227 2.9598L13.7999 3.91457C13.3153 3.53266 12.7338 3.24623 12.1523 2.9598L11.7647 0.477387C11.8616 0.190955 11.5708 0 11.377 0H7.50043C7.30661 0 7.01586 0.190955 7.01586 0.38191L6.6282 2.9598C6.04672 3.15075 5.56214 3.53266 4.98066 3.91457L2.65471 2.9598C2.36397 2.86432 2.17014 2.9598 1.97631 3.15075L0.03802 6.49246C-0.0588945 6.58794 0.03802 6.87437 0.231849 7.06533L2.26705 8.59297C2.26705 8.8794 2.17014 9.16583 2.17014 9.54774C2.17014 9.92965 2.17014 10.2161 2.26705 10.5025L0.231849 12.1256C0.03802 12.3166 0.03802 12.5075 0.134934 12.6985L2.07322 16.0402C2.17014 16.1357 2.36397 16.2312 2.65471 16.1357L5.07757 15.1809C5.56214 15.5628 6.14363 15.8492 6.72512 16.1357L7.11278 18.6181C7.11278 18.809 7.30661 19 7.59735 19H11.4739C11.6678 19 11.9585 18.809 11.9585 18.6181L12.3462 16.1357C12.9276 15.8492 13.5091 15.5628 13.9937 15.1809L16.4166 16.1357C16.6104 16.2312 16.9011 16.1357 16.9981 15.9447L18.9363 12.603C19.0333 12.4121 19.0333 12.1256 18.8394 12.0302L16.6104 10.5025ZM9.5 13C7.6 13 6 11.4 6 9.5C6 7.6 7.6 6 9.5 6C11.4 6 13 7.6 13 9.5C13 11.4 11.4 13 9.5 13Z" fill="white"/>
</svg>
