<svg xmlns="http://www.w3.org/2000/svg" xmlns:xlink="http://www.w3.org/1999/xlink" width="92" height="89" viewBox="0 0 92 89">
    <defs>
        <path id="a" d="M.018.159h91.797v86.436H.018z"/>
    </defs>
    <g fill="none" fill-rule="evenodd">
        <path fill="#ADA3E8" d="M10.788 25.42c.137-.246.412-.634.38-1.103-.049-.667-.535-1.398-1.061-1.822-.269-.22-1.82-.292-2.566.797-.478.697-.989 1.738-.77 2.54.077.283.352.542.594.737.182.148.496.123.684.265.427.319.621 1.007 1.147.917.529-.09.52-.764.794-1.227.24-.397.574-.697.798-1.103zm15.81 2.89c.487-1.545-.257-2.88-1.813-3.346-.547-.166-1.07.11-1.302.583-.4.815-.989 1.425-.995 2.372-.006.62.317 1.128.636 1.422.926.857 3.098.172 3.474-1.03zm3.83.62c.409-1.098 1.14-1.85 1.096-3.134-.033-.905-.6-1.653-1.073-2.309-.507-.712-1.2-1.305-1.872-1.885-1.213-1.052-2.519-1.14-3.872-1.26-.627-.057-1.54.244-2.01.695-1.168 1.127-1.915 2.577-2.237 4.212-.06.289-.063.596-.03.884.018.133.134.361.293.364.152.006.29-.216.304-.34.147-1.377 1.201-2.216 1.921-3.238.535-.755 1.228-1.052 2.195-.586 2.047.983 3.633 2.441 4.329 4.687.209.683.245 1.227.245 1.949 0 .3 0 .61.262.562.257-.048.335-.3.449-.601zm26.5 14.651c1.255-1.295 1.822-4.26 1.315-5.556-.096-.25-.34-.752-.708-.677-.559.112-.541.515-.598.752-.263 1.11-.146 2.165-.472 3.181-.478 1.486-1.395 2.62-2.79 2.932-1.636.37-3.554.13-4.522-1.446-.442-.722-1.03-1.675-1.526-2.36-.129-.181-.38-.494-.589-.386-.215.112-.122.668-.056.884.463 1.603 1.344 3.001 2.586 3.984.756.599 2.005.821 3.038.854 1.807.054 3.196-.998 4.322-2.162zM15.684 66.273c.307.542.486.758.952 1.242.195.205.843.692 1.103.737.334.06.708.183.914-.01.185-.17.209-.76.203-1.103-.024-.962-.096-1.924-.093-2.886 0-.604.505-.686.708-.256.353.737.935 1.456 1.279 1.738.32.268.74.767 1.129.59.358-.163.448-.75.35-1.326-.123-.704-.24-2.093-.443-2.872a2.578 2.578 0 0 1-.078-.893c.04-.355.508-1.022.207-1.209-.278-.177-.852.545-1.171.827-.855.752-1.682 1.522-2.719 1.94-2.064.826-3.02-.049-3.243-1.97-.162-1.404.158-2.697.854-3.912.759-1.323 1.628-2.6 2.216-3.996.55-1.31.825-2.742 1.156-4.137.23-.965.21-1.016.92-.463 1.362 1.064 2.972 1.377 4.61 1.627.205.03.608.024.662-.205.048-.21-.284-.34-.463-.448-1.505-.935-3.005-1.885-4.534-2.775-1.43-.833-1.971-2.354-2.847-3.608-.367-.523.108-1.016.998-1.146.34-.05.681-.12 1.019-.213a15.307 15.307 0 0 0 1.968-.665c1.514-.616 2.184-1.118 3.298-1.78.603-.357 1.257-.64 1.908-.902.78-.315 1.575-.775 2.375-.808 1.488-.06 3.038-.18 4.415.634.64.379 1.057.64 1.622 1.127.173.15.388.34.573.217.174-.117.147-.442.048-.692-.245-.616-.514-1.088-.896-1.404-.97-.803-.066-.845.388-.983 1.963-.595 3.373-1.31 4.995-2.105 1.445-.706 2.852-.905 4.405-.48 2.746.75 4.875 1.632 6.814 3.77.636.7 1.021 1.302 1.446 1.978.086.141.298.7.645.526.2-.099.266-.556.074-.953-.4-.839-.75-1.37-1.302-2.114-1.897-2.546-4.433-3.662-6.763-4.2-1.281-.295-2.264-.024-2.368-.358-.15-.475.621-.827.926-1.218.107-.138.245-.42.125-.577-.17-.225-.621-.156-.827-.042-1.144.628-2.214 1.383-3.307 2.099-.866.568-1.419.869-2.153 1.236-1.65.83-2.8 1.392-4.484 1.743-.708.15-1.505.163-2.25.09-1.212-.12-1.517-.165-.931-1.37.233-.478-.194-.62-.46-.55-.269.069-.747.477-1.046.727-1.036.869-2.38 1.533-3.435 2.381-1.424 1.14-2.377 1.967-3.87 2.902-.748.466-1.414.767-2.137.956a7.74 7.74 0 0 1-1.03.186c-.418.049-.857.021-1.255.142-1.613.487-2.927-.105-4.05-1.176-2.24-2.135-3.378-4.84-3.749-7.884-.053-.448.08-.926.17-1.38.108-.562-.056-.83-.654-.724-.98.171-1.663-.328-2.32-.972-2.292-2.24-1.843-5.111-.147-7.246.875-1.1 1.795-1.792 3.247-1.849 1.706-.07 2.327.833 2.894 1.29.404.322.795.716 1.192.535.466-.21.502-.839.347-1.332-.162-.493.478-1.043.896-1.389 1.53-1.278 4.017-2.607 6.652-3.271.263-.09.618-.118.863-.012 2.166.92 4.209.68 6.386.327.771-.126 1.545-.514 2.223-.736.185-.063.558-.1.648.105.084.186-.173.4-.326.511-.504.382-1.051.62-1.625.971-.182.112-.699.451-.597.653.108.21.744.033.968-.024 1.941-.493 3.37-1.657 4.409-3.37.26-.43.418-1.023.896-1.092.696-.1 1.634-.391 1.717.848.036.553.475 1.145.872 1.632.586.719 1.288 1.404 1.984 2.018 1.153 1.013 3.073 1.338 4.737 1.323 1.195-.015 2.214-.235 3.408-1.149.14-.108.37-.294.296-.463-.12-.276-.499-.102-.642-.051-1.861.659-4.233.451-5.278.051-.878-.337-1.449-1.037-1.449-1.037-.759-1.287-.759-1.32.759-1.353 1.69-.036 3.384.048 5.072-.036.995-.051 1.894-.27 2.867-.517.888-.226 1.004.126.777.688-.26 2.105-.884 4.216-1.195 6.353-.101.71-.066 1.528.263 2.192.597 1.203 2.27 1.07 2.951.286.633-.728.816-1.885.454-3.49-.32-1.408-.848-3.014-1.215-4.538-.368-1.534-.147-2.986.522-4.411.305-.652.645-.598 1.064-.253.914.75 1.908 1.435 2.673 2.319 1.834 2.113 2.84 3.352 3.782 6.013.265.752.543 1.79.603 2.12a76.428 76.428 0 0 1 1.27 13.81c0 2.168-.222 4.264-.419 6.461-.134 1.528-.31 7.343-.38 10.825-.029 1.482.183 2.97.183 4.456-.003 2.46-.015 4.922-.152 7.378-.153 2.749-.12 4.381-.657 7.081-.15.752-.44 1.398-.186 1.498.41.156.8-.704.971-1.272.499-1.678 1.264-4.604 1.132-7.246-.036-.75.135-1.51.24-2.262.02-.135.17-.327.286-.348.102-.021.299.138.355.264 1.36 2.917 3.931 4.402 6.62 5.791 2.667 1.374 5.28 2.86 7.94 4.26 2.344 1.234 4.262 2.99 6.17 4.8 1.028.974 2.3 1.701 3.498 2.48.98.638 1.676 1.022 2.656 1.657.224.144.77.646.86.938.161.52.173 1.506-.335 1.954-.442.391-.893.478-1.5.623-.856.207-1.74.316-2.622.388-.756.063-1.52.027-2.282.015-4.224-.057-8.435.099-12.647.535-2.637.274-5.314.252-7.97.192-1.054-.02-2.123-.424-3.13-.805-.648-.244-.944-.812-.627-1.603.424-1.058.768-2.153 1.108-3.241.063-.193.102-.55-.09-.665-.208-.126-.52.102-.674.259-.198.198-.314.496-.422.77-.746 1.93-2.07 3.38-3.736 4.534-.34.234-.735.403-1.12.562-3.486 1.455-7.145 1.831-10.885 1.87-1.939.021-3.871.3-5.81.454-3.725.298-4.893-1.554-5.914-4.182-.278-.722.328-1.768 1.296-2.25.675-.333 1.401-.589 2.124-.802 2.838-.839 5.795-1.516 8.53-1.69 2.023-.13 3.735-1.248 5.715-1.948.152-.054.353-.331.323-.454-.04-.157-.287-.37-.445-.37-.541.003-1.094.027-1.616.153-1.395.328-2.949 1.176-4.893 1.275-1.279.066-1.302-.03-1.55-1.32-.153-.785-.67-2.252-1.034-2.953-.466-.896-1.111-.826-1.514.118-.299.697-.553 1.729-.753 2.507-.063.247-.185.875-.197 1.128-.027.496-.027 1.052-.535 1.043-.287-.003-.51-.893-.81-1.545-.528-1.149-1.02-1.663-1.815-2.64-.263-.328-.935-.623-1.288-.508-.621.198-.606.884-.588 1.521.033 1.176.654 3.722.654 3.762.009.33.308.835.018.992-.26.138-.663-.274-.863-.547-.53-.71-1.082-1.26-1.73-1.859-.493-.454-.97-.76-1.535-1.112-.681-.424-1.201-.075-1.16.73.093 1.787.673 3.266 1.59 4.77.128.213.302.411.367.643.194.664.642 1.368-.062 1.99-.604.535-1.195.051-1.78-.096a287.903 287.903 0 0 1-3.17-.812c-1.547-.412-2.748-1.434-4.032-2.312-.195-.132-.478-.397-.675-.259-.23.16-.087.593.008.836.198.508.428 1.029.76 1.456.456.586.274.787-.314 1.115-3.13 1.744-6.575 2.378-10.043 2.847-1.254.169-2.56.024-3.698-.854-1.574-1.214-1.723-3.18-.316-4.576 2.769-2.748 6.23-3.298 9.887-3.316.499 0 1.09.147 1.565.033.266-.063.472-.202.573-.749.033-.174-.239-.565-.466-.667-1.878-.857-2.67-2.445-3.02-4.372-.167-.917-.513-1.82-.564-2.74-.069-1.175.072-2.363.146-3.544.01-.139.114-.373.272-.397.15-.021.287.147.362.276zm20.437-3.788c-.69 1.097-1.425 2.477-1.35 3.942.012.22-.027.355.006.472.155.58-.081 1.578.495 1.735.547.147.926-.7 1.225-1.182.353-.562.577-1.224 1.105-1.158.526.064.508.939.792 1.39.618.983.83 2.255 2.022 2.832.678.328.878.216.926-.553.054-.845.093-1.693.194-2.535.033-.259.11-.686.386-.743.268-.057.477.298.648.512.627.781 1 1.16 1.711 1.533.227.123.968.68 1.455.379.424-.265.066-1.029 0-1.317-.559-1.278-.696-2.192-.956-3.518-.069-.36.135-.785.254-1.167.114-.357.272-.7.427-1.046.714-1.59.89-3.268 2.142-4.528.263-.265.412-.64.25-.803-.226-.238-.435-.177-.734.012-.633.397-1.049.875-1.443 1.437-1.174 1.681-1.547 3.93-2.246 5.924-.296.847-1.081 1.446-1.977 1.35-2.973-.325-3.98-3.127-3.507-5.404.236-1.148.735-2.14 1.329-3.196.478-.839 1.32-1.675 1.864-2.477.093-.139.34-.415.155-.566-.164-.129-.77.196-.887.31-1.965 1.897-3.844 3.834-3.841 6.865 0 .502-.17 1.064-.445 1.5z"/>
        <path fill="#F4E9B5" d="M4.838 80.219c-.424-.259-.96-.421-1.42-.602-.43-.165-1.065-.589-1.322-.192-.224.343.391.914.702 1.146.507.375 1.036.823 1.708.793.415-.018.607.01.792-.529.068-.204-.275-.502-.46-.616M36.067 64.56c-.146.342-.263.45-.338 1.052-.05.415-.038 1.043.189 1.091.188.036.466-.556.597-.697.2-.214.403-.487.583-.77.197-.31.074-.655-.048-1.016-.236-.713-.684-.373-.983.34M44.413 66.132c-.084-.274-.14-.779-.436-.776-.37.006-.538.677-.5.975.049.36.156.742.428 1.046.376.415.675.574.896.415.212-.15-.185-1.001-.388-1.66M40.064 66c-.227-.163-.825-.313-.9.174-.065.436.114.797.245 1.2.129.403.514 1.62.95 1.545.398-.069.174-1.214.156-1.759-.015-.37-.099-.91-.451-1.16M39.738 74.608c-.448.1-.478 1.19-.523 1.401-.098.454-.15.803-.176 1.23-.027.481.033 1.155.212 1.242.212.102 1.138-.18 1.234-.466.197-.602.03-1.224-.17-2.03-.129-.526-.4-1.416-.577-1.377M35.114 76.033c-.12-.213-.475-.718-.729-.65-.227.061-.15.503-.113.747.152 1.004.358 1.909.508 2.823.116.704.486.55 1.006.43.505-.12.872-.376.547-.998-.41-.782-.783-1.585-1.219-2.352M30.544 78.478c-.12-.147-.517-.571-.714-.463-.17.093-.152.394-.048.8.221.854.696 2.056 1.174 2.727a.358.358 0 0 0 .18.123c.415.123 1.233-.667.59-1.585a25.688 25.688 0 0 0-1.182-1.602M6.331 76.61c-.58-.378-1.033-.18-.944.277.233 1.206.374 2.156 1.27 2.833.209.156.77.294.92.225.361-.171.663-.403.77-.652.102-.232-.09-.734-.42-1.152-.756-.947-1.097-1.203-1.596-1.53M10.988 74.656c-.161-.048-.176.779-.245 1.077-.143.61-.8 1.68-.487 2.077.105.133.457.256.756.154.412-.139.63-.59.633-.905.006-.545-.107-2.237-.657-2.403M13.608 62.774c-.221.469-.356 1.091-.392 1.503-.047.502.024 1.11.11 1.485.022.093.126.364.347.328.078-.012.129-.126.2-.454.2-.908.362-1.41.5-1.996.074-.322-.03-.64-.17-.785-.24-.25-.497-.295-.595-.081M17.607 64.86c-.033-.306.066-.742-.591-.724-.726.024-1.055.21-.977.8.021.15.308.613.424.766.188.244.834 1.155 1.12 1.037.248-.099.093-.79.075-.953-.05-.424-.024-.7-.05-.926M20.436 62.353c-.15.012-.532.394-.412.778.248.803.914 1.919 1.233 1.768.323-.15-.065-1.617-.215-2.068-.104-.322-.266-.502-.606-.478"/>
        <path fill="#BDFFFA" d="M27.118 13.91c-.41 0-.923-.014-1.476.157-.666.205-1.583.229-1.523.656.057.43 1.2.14 1.63.12.446-.021.936-.163 1.384-.244.164-.03.442-.135.445-.321.006-.202-.308-.367-.46-.367M32.37 13.072c-.449-.153-.945-.175-1.22-.102-.752.19-1.045.418-.875.869.096.252.613.12.875.08.329-.047 1.144-.198 1.374-.522.072-.097-.041-.286-.155-.325M42.997 12.843c-1.282-.156-2.139-.225-3.489-.018-.143.024-.373.142-.37.304 0 .19.286.3.445.346.851.246 1.657.3 2.315.306.609.01.866.016 1.275-.087.197-.048.565-.144.57-.349.013-.312-.471-.469-.746-.502M49.571 12.335c-.764-.228-2.055-.318-2.49-.117-.709.325-1.046.7-.873.977.182.286.926.322 1.165.334.878.042 1.5-.123 2.1-.418.463-.229.582-.634.098-.776M51.916 21.1c-.146-.875-.314-1.443-.466-2.318-.113-.638-.31-.881-.448-.866-.263.03-.299.415-.361.691-.057.244-.317 1.107-.35 1.353-.176 1.3-.322 1.702-.248 2.33-.05.53.481 1.125.896 1.053.846-.15 1.141-1.257.977-2.243"/>
        <path fill="#FFA96E" d="M84.803 69.662c-.093-1.275-.212-1.38-1.449-1.326-2.055.087-3.8 1.01-5.49 2.075-.514.321-.469.646.042.92 2.028 1.082 3.809 2.492 5.433 4.113.6.595.855.268.968-.367.236-1.329.532-4.952.496-5.415M71.344 61.114c-1.452.42-2.946.776-4.31 1.404-1.629.752-1.626 1.278-.284 2.426.224.193.466.373.725.506 1.545.77 3.095 1.524 4.642 2.285.651.318.828.006.816-.599-.012-.634-.147-4.098-.392-5.156-.12-.517-.52-1.062-1.197-.866M68.978 52.99c-.744-.59-1.622-1.044-2.497-1.417-.807-.34-1.69-.493-2.542-.718-1.228-.325-1.792.153-1.76 1.455.015.68.003 1.356.003 2.036h-.006c0 .848-.023 1.698.01 2.546.02.59.185 1.167.961.972 2.1-.52 3.937-1.317 5.664-2.664 1.159-.902 1.347-1.275.167-2.21M62.98 37.315c-.08 1.558-.266 6.05-.272 6.73-.006.568.218.835.762.52 1.478-.854 3.262-1.344 4.594-2.556 1.04-.944 1.392-1.11.38-2.096-1.339-1.305-2.862-2.375-4.613-3.082-.496-.201-.818-.147-.851.484M63.446 29.78c.81-1.052 1.837-1.855 2.9-2.603 1.246-.878 1.243-1.85-.143-2.583-1.117-.59-1.986-1.05-3.068-1.702-.499-.3-.97-.728-1.293-.577-.254.117-.024.914.024 1.202.382 2.355.672 4.384.845 5.915.057.478.481.676.735.348"/>
        <path fill="#706CC4" d="M9.37 23.629c.468.204.546.49.534 1.103a1.27 1.27 0 0 1-1.076 1.254c-.552.075-.767-.174-.902-.665-.134-.48-.024-.754.323-1.277.15-.226.77-.566 1.12-.415M25.126 26.524c.092.184.19.623.164.93-.039.474.31 1.346-.657 1.412-.908.064-.852-.688-.9-1.41-.023-.346.159-.809.377-1.133.131-.19.729-.38 1.016.201"/>
        <path fill="#FAFAFA" d="M50.432 9.987c.104.325.041.824-.15 1.088-.12.16-.636.033-.97.024-.254-.006-.505-.03-.756-.045-.93-.066-.93-.066-.932-1.019-.096-1.227-.968-2.204-2.312-2.153-1.694.063-2.587.926-2.781 2.77-.099.962-.702 1.073-1.574 1.088-.741.012-1.368.177-2.091.3-.31.055-.723.076-.822-.249-.068-.223-.12-.373.2-1.103.413-.95.481-1.666.983-2.568 2.073-3.72 5.159-4.48 8.77-2.171 1.464.935 1.942 2.508 2.435 4.038M32.802 10.492c.161.52.887 1.374-.036 1.473-.693.076-1.616.226-1.965-.475-.654-1.314-1.195-2.08-2.688-1.804-.99.184-1.703 1.362-1.685 2.51.012.671-.382 1.023-.804 1.12-.409.093-.812.219-1.221.312-1.037.238-1.15.132-1.007-.974.269-2.05 1.553-3.383 3.256-4.267 2.154-1.115 4.45-1.007 5.926 1.651.08.147.176.295.224.454"/>
        <path fill="#FFF" d="M45.548 9.722c.113.842-.8 1.67-1.458 1.516-.391-.093-.72-.575-.618-1.125.071-.412.588-1.07 1.156-1.127.585-.06.86.228.92.736M28.65 10.333c.168 0 .466.27.433.781-.038.599-.35.927-.824.98-.448.052-.64-.225-.612-.697.035-.658.34-1.058 1.003-1.064"/>
        <path fill="#000" d="M44.087 1.91c1.774 1.146 3.865 2.289 5.882 2.68.218.042.418-.298.555-.52.356-.56.003-.978-.403-1.281a86.665 86.665 0 0 0-3.28-2.34c-.263-.177-.669-.387-.908-.3-.657.24-1.278.598-1.876.968-.364.226-.364.538.03.794M57.535 37.348c-.559.112-.541.515-.598.752-.263 1.11-.146 2.165-.472 3.181-.478 1.486-1.395 2.62-2.79 2.932-1.636.37-3.554.13-4.522-1.446-.442-.722-1.03-1.675-1.526-2.36-.129-.181-.38-.494-.589-.386-.215.112-.122.668-.056.884.463 1.603 1.344 3.001 2.586 3.984.756.599 2.005.821 3.038.854 1.807.054 3.196-.998 4.322-2.162 1.255-1.295 1.822-4.26 1.315-5.556-.096-.25-.34-.752-.708-.677M44.801 67.792c-.221.16-.52 0-.896-.415-.272-.304-.38-.686-.427-1.046-.04-.298.128-.969.499-.975.295-.003.352.502.436.776.203.659.6 1.51.388 1.66zm-4.442 1.127c-.436.076-.821-1.142-.95-1.545-.131-.403-.31-.764-.244-1.2.074-.487.672-.337.899-.174.352.25.436.79.45 1.16.019.545.243 1.69-.155 1.76zm-3.261-3.683c-.18.283-.383.556-.583.77-.131.141-.41.733-.597.697-.227-.048-.24-.676-.189-1.091.075-.601.192-.71.338-1.052.299-.713.747-1.053.983-.34.122.36.245.706.048 1.016zm10.02-8.494c-.632.397-1.048.875-1.442 1.437-1.174 1.681-1.547 3.93-2.246 5.924-.296.847-1.081 1.446-1.977 1.35-2.973-.325-3.98-3.127-3.507-5.404.236-1.148.735-2.14 1.329-3.196.478-.839 1.32-1.675 1.864-2.477.093-.139.34-.415.155-.566-.164-.129-.77.196-.887.31-1.965 1.897-3.844 3.834-3.841 6.865 0 .502-.17 1.064-.445 1.5-.69 1.097-1.425 2.477-1.35 3.942.012.22-.027.355.006.472.155.58-.081 1.578.495 1.735.547.147.926-.7 1.225-1.182.353-.562.577-1.224 1.105-1.158.526.064.508.939.792 1.39.618.983.83 2.255 2.022 2.832.678.328.878.216.926-.553.054-.845.093-1.693.194-2.535.033-.259.11-.686.386-.743.268-.057.477.298.648.512.627.781 1 1.16 1.711 1.533.227.123.968.68 1.455.379.424-.265.066-1.029 0-1.317-.559-1.278-.696-2.192-.956-3.518-.069-.36.135-.785.254-1.167.114-.357.272-.7.427-1.046.714-1.59.89-3.268 2.142-4.528.263-.265.412-.64.25-.803-.226-.238-.435-.177-.734.012z"/>
        <g transform="translate(0 2.405)">
            <mask id="b" fill="#fff">
                <use xlink:href="#a"/>
            </mask>
            <path fill="#000" d="M24.657 5.188c1.144-.523 2.315-1.001 3.402-1.623a5.68 5.68 0 0 0 1.679-1.507c.313-.42.773-1.115.495-1.602-.164-.29-.627-.328-1.075-.28-.705.075-1.362.628-2.025 1.04-1.332.827-2.417 1.894-2.754 3.058-.054.184-.329.842-.188.974.116.109.331.003.466-.06M20.436 59.947c.34-.024.502.157.606.478.15.451.538 1.919.215 2.069-.32.15-.985-.965-1.233-1.768-.12-.385.263-.767.412-.779zm-3.42 1.783c.657-.018.558.418.591.725.027.225 0 .502.051.926.018.162.173.854-.075.953-.286.117-.932-.794-1.12-1.037-.116-.154-.403-.617-.424-.767-.078-.59.251-.776.977-.8zm22.023 13.104c.027-.427.078-.776.176-1.23.045-.21.075-1.302.523-1.401.176-.04.448.85.577 1.377.2.806.367 1.428.17 2.03-.096.285-1.022.568-1.234.465-.18-.087-.239-.76-.212-1.241zm-4.654-1.856c.254-.069.61.436.73.65.435.767.809 1.57 1.218 2.351.325.623-.042.878-.547.998-.52.12-.89.274-1.006-.43-.15-.914-.356-1.819-.508-2.823-.036-.243-.114-.685.113-.746zm55.896 8.681c-.442.39-.893.478-1.5.622-.856.208-1.74.316-2.622.388-.756.063-1.52.027-2.282.015-4.224-.057-8.435.1-12.647.536-2.637.273-5.314.252-7.97.192-1.054-.021-2.123-.424-3.13-.806-.648-.243-.944-.812-.627-1.602.424-1.059.768-2.153 1.108-3.242.063-.192.102-.55-.09-.664-.208-.127-.52.102-.674.258-.198.199-.314.496-.422.77-.746 1.93-2.07 3.38-3.736 4.534-.34.235-.735.403-1.12.563-3.486 1.455-7.145 1.83-10.885 1.87-1.939.02-3.871.3-5.81.454-3.725.297-4.893-1.555-5.914-4.183-.278-.721.328-1.768 1.296-2.249.675-.333 1.401-.589 2.124-.803 2.838-.838 5.795-1.515 8.53-1.69 2.023-.129 3.735-1.247 5.715-1.948.152-.054.353-.33.323-.454-.04-.156-.287-.37-.445-.37-.541.003-1.094.028-1.616.154-1.395.328-2.949 1.175-4.893 1.275-1.279.066-1.302-.03-1.55-1.32-.153-.785-.67-2.252-1.034-2.953-.466-.896-1.111-.827-1.514.117-.299.698-.553 1.73-.753 2.508-.063.247-.185.875-.197 1.127-.027.497-.027 1.053-.535 1.044-.287-.003-.51-.893-.81-1.546-.528-1.148-1.02-1.662-1.815-2.64-.263-.327-.935-.622-1.288-.508-.621.199-.606.884-.588 1.522.033 1.175.654 3.722.654 3.761.009.33.308.836.018.992-.26.139-.663-.273-.863-.547-.53-.71-1.082-1.26-1.73-1.858-.493-.454-.97-.76-1.535-1.113-.681-.423-1.201-.075-1.16.731.093 1.786.673 3.265 1.59 4.769.128.213.302.412.367.643.194.665.642 1.368-.062 1.99-.604.536-1.195.052-1.78-.095a287.903 287.903 0 0 1-3.17-.812c-1.547-.412-2.748-1.434-4.032-2.312-.195-.133-.478-.397-.675-.26-.23.16-.087.593.008.837.198.508.428 1.028.76 1.455.456.586.274.788-.314 1.116-3.13 1.744-6.575 2.378-10.043 2.847-1.254.168-2.56.024-3.698-.854-1.574-1.215-1.723-3.181-.316-4.576 2.769-2.748 6.23-3.299 9.887-3.317.499 0 1.09.148 1.565.033.266-.063.472-.201.573-.748.033-.175-.239-.566-.466-.668-1.878-.857-2.67-2.444-3.02-4.372-.167-.917-.513-1.819-.564-2.739-.069-1.175.072-2.363.146-3.545.01-.138.114-.373.272-.397.15-.02.287.148.362.277.307.541.486.758.952 1.242.195.204.843.691 1.103.736.334.06.708.184.914-.009.185-.17.209-.76.203-1.103-.024-.962-.096-1.924-.093-2.887 0-.604.505-.685.708-.255.353.737.935 1.455 1.279 1.738.32.267.74.767 1.129.59.358-.163.448-.75.35-1.327-.123-.703-.24-2.093-.443-2.871a2.578 2.578 0 0 1-.078-.893c.04-.355.508-1.023.207-1.209-.278-.177-.852.544-1.171.827-.855.752-1.682 1.521-2.719 1.94-2.064.826-3.02-.049-3.243-1.97-.162-1.404.158-2.697.854-3.912.759-1.323 1.628-2.6 2.216-3.996.55-1.31.825-2.742 1.156-4.137.23-.965.21-1.017.92-.463 1.362 1.064 2.972 1.377 4.61 1.626.205.03.608.024.662-.204.048-.21-.284-.34-.463-.448-1.505-.935-3.005-1.885-4.534-2.775-1.43-.833-1.971-2.355-2.847-3.608-.367-.524.108-1.017.998-1.146.34-.051.681-.12 1.019-.214a15.307 15.307 0 0 0 1.968-.664c1.514-.616 2.184-1.119 3.298-1.78.603-.358 1.257-.64 1.908-.902.78-.316 1.575-.776 2.375-.809 1.488-.06 3.038-.18 4.415.635.64.378 1.057.64 1.622 1.127.173.15.388.34.573.217.174-.118.147-.442.048-.692-.245-.616-.514-1.088-.896-1.404-.97-.803-.066-.845.388-.983 1.963-.596 3.373-1.311 4.995-2.105 1.445-.707 2.852-.905 4.405-.481 2.746.752 4.875 1.633 6.814 3.77.636.7 1.021 1.302 1.446 1.979.086.141.298.7.645.526.2-.1.266-.556.074-.953-.4-.84-.75-1.371-1.302-2.114-1.897-2.547-4.433-3.662-6.763-4.2-1.281-.295-2.264-.024-2.368-.358-.15-.475.621-.827.926-1.218.107-.138.245-.42.125-.577-.17-.226-.621-.157-.827-.042-1.144.628-2.214 1.383-3.307 2.098-.866.569-1.419.87-2.153 1.236-1.65.83-2.8 1.392-4.484 1.744-.708.15-1.505.162-2.25.09-1.212-.12-1.517-.165-.931-1.37.233-.479-.194-.62-.46-.551-.269.07-.747.478-1.046.728-1.036.869-2.38 1.533-3.435 2.381-1.424 1.14-2.377 1.966-3.87 2.901-.748.467-1.414.767-2.137.957a7.74 7.74 0 0 1-1.03.186c-.418.048-.857.021-1.255.141-1.613.487-2.927-.105-4.05-1.175-2.24-2.135-3.378-4.841-3.749-7.884-.053-.448.08-.926.17-1.38.108-.562-.056-.83-.654-.725-.98.172-1.663-.327-2.32-.97-2.292-2.24-1.843-5.112-.147-7.247.875-1.1 1.795-1.792 3.247-1.85 1.706-.069 2.327.834 2.894 1.29.404.322.795.716 1.192.536.466-.21.502-.84.347-1.332-.162-.493.478-1.044.896-1.39 1.53-1.277 4.017-2.606 6.652-3.27.263-.09.618-.118.863-.013 2.166.92 4.209.68 6.386.328.771-.126 1.545-.514 2.223-.737.185-.063.558-.099.648.106.084.186-.173.4-.326.51-.504.383-1.051.62-1.625.972-.182.111-.699.45-.597.652.108.21.744.033.968-.024 1.941-.493 3.37-1.656 4.409-3.37.26-.43.418-1.023.896-1.092.696-.099 1.634-.39 1.717.848.036.553.475 1.146.872 1.633.586.718 1.288 1.404 1.984 2.017 1.153 1.014 3.073 1.338 4.737 1.323 1.195-.015 2.214-.234 3.408-1.148.14-.108.37-.295.296-.463-.12-.277-.499-.102-.642-.051-1.861.658-4.233.45-5.278.05-.878-.336-1.449-1.037-1.449-1.037-.759-1.286-.759-1.32.759-1.353 1.69-.036 3.384.048 5.072-.036.995-.05 1.894-.27 2.867-.517.888-.225 1.004.126.777.689-.26 2.104-.884 4.215-1.195 6.353-.101.71-.066 1.527.263 2.192.597 1.203 2.27 1.07 2.951.286.633-.728.816-1.886.454-3.491-.32-1.407-.848-3.013-1.215-4.538-.368-1.533-.147-2.985.522-4.41.305-.653.645-.599 1.064-.253.914.749 1.908 1.434 2.673 2.318 1.834 2.114 2.84 3.353 3.782 6.014.265.751.543 1.789.603 2.12a76.428 76.428 0 0 1 1.27 13.81c0 2.167-.222 4.263-.419 6.461-.134 1.527-.31 7.343-.38 10.824-.029 1.483.183 2.971.183 4.456-.003 2.46-.015 4.922-.152 7.379-.153 2.748-.12 4.38-.657 7.08-.15.753-.44 1.399-.186 1.498.41.157.8-.703.971-1.272.499-1.677 1.264-4.603 1.132-7.246-.036-.749.135-1.51.24-2.261.02-.135.17-.328.286-.349.102-.02.299.139.355.265 1.36 2.916 3.931 4.402 6.62 5.79 2.667 1.375 5.28 2.86 7.94 4.261 2.344 1.233 4.262 2.99 6.17 4.8 1.028.973 2.3 1.701 3.498 2.48.98.637 1.676 1.022 2.656 1.657.224.144.77.646.86.938.161.52.173 1.506-.335 1.954zm-59.146-2.4a.358.358 0 0 1-.179-.123c-.478-.67-.953-1.873-1.174-2.727-.104-.406-.122-.706.048-.8.197-.108.595.316.714.463.445.548.78 1.026 1.183 1.603.642.917-.176 1.708-.592 1.585zM5.387 74.483c-.09-.457.365-.656.944-.277.5.328.84.584 1.595 1.53.332.419.523.92.422 1.152-.108.25-.41.481-.771.653-.15.069-.711-.07-.92-.226-.896-.676-1.037-1.626-1.27-2.832zm5.356-1.155c.069-.297.084-1.124.245-1.076.55.165.663 1.858.657 2.402-.003.316-.22.767-.633.905-.299.103-.651-.02-.756-.153-.313-.397.344-1.467.487-2.078zm3.63-12.093c-.138.586-.3 1.089-.5 1.997-.071.327-.122.442-.2.454-.22.036-.325-.235-.346-.328a5.166 5.166 0 0 1-.11-1.485c.035-.412.17-1.035.39-1.504.1-.213.356-.168.595.081.14.145.245.463.17.785zm13.205-49.362c-.003.187-.28.292-.445.322-.448.081-.938.222-1.383.243-.43.021-1.574.31-1.631-.12-.06-.427.857-.45 1.523-.655.553-.172 1.067-.157 1.476-.157.152 0 .466.166.46.367zm1.505-3.163c-.038.598-.35.926-.824.98-.448.051-.64-.225-.612-.697.035-.659.34-1.059 1.003-1.065.168 0 .466.27.433.782zm3.441 2.282c-.23.325-1.045.475-1.374.523-.262.04-.78.172-.875-.08-.17-.452.123-.68.875-.87.275-.072.771-.05 1.22.102.113.04.226.229.154.325zm-9.128-.742c.269-2.051 1.553-3.383 3.256-4.267 2.154-1.116 4.45-1.007 5.926 1.65.08.148.176.295.224.455.161.52.887 1.374-.036 1.473-.693.075-1.616.225-1.965-.475-.654-1.314-1.195-2.08-2.688-1.804-.99.183-1.703 1.362-1.685 2.51.012.671-.382 1.023-.804 1.119-.409.093-.812.22-1.221.313-1.037.237-1.15.132-1.007-.974zm20.348.691c-.006.205-.374.3-.57.349-.41.102-.667.096-1.276.087-.658-.006-1.464-.06-2.315-.307-.159-.045-.445-.156-.445-.345-.003-.163.227-.28.37-.304 1.35-.208 2.207-.138 3.489.018.275.033.759.19.747.502zm-.272-3.232c.071-.412.588-1.07 1.156-1.128.585-.06.86.229.92.737.113.842-.8 1.669-1.458 1.515-.391-.093-.72-.574-.618-1.124zm6 2.998c-.6.294-1.221.46-2.1.417-.238-.012-.982-.048-1.164-.333-.173-.277.164-.653.872-.977.436-.202 1.727-.112 2.491.117.484.141.365.547-.098.776zM38.246 8.282c.412-.95.48-1.666.982-2.568 2.073-3.719 5.159-4.48 8.77-2.17 1.464.935 1.942 2.507 2.435 4.038.104.324.041.823-.15 1.088-.12.16-.636.033-.97.024-.254-.006-.505-.03-.756-.045-.93-.066-.93-.066-.932-1.02-.096-1.226-.968-2.203-2.312-2.152-1.694.063-2.587.926-2.781 2.769-.099.962-.702 1.073-1.574 1.088-.741.013-1.368.178-2.091.301-.31.054-.723.075-.822-.25-.068-.222-.12-.372.2-1.103zm12.757 7.228c.137-.015.335.229.448.866.152.875.32 1.444.466 2.319.164.986-.131 2.092-.977 2.243-.415.072-.947-.524-.896-1.053-.074-.628.072-1.031.248-2.33.033-.247.293-1.11.35-1.353.062-.277.098-.662.361-.692zm10.84 4.4c.323-.151.794.276 1.293.577 1.082.652 1.95 1.112 3.068 1.701 1.386.734 1.389 1.705.143 2.583-1.063.749-2.09 1.552-2.9 2.604-.254.328-.678.13-.735-.349-.173-1.53-.463-3.56-.845-5.914-.048-.289-.278-1.085-.024-1.203zm1.138 15c.033-.631.355-.686.851-.484 1.75.706 3.274 1.777 4.612 3.082 1.013.986.66 1.151-.38 2.095-1.331 1.212-3.115 1.702-4.593 2.556-.544.316-.768.048-.762-.52.006-.68.191-5.172.272-6.73zm.959 13.54c.851.225 1.735.378 2.542.718.875.373 1.753.827 2.497 1.416 1.18.935.992 1.308-.167 2.21-1.727 1.347-3.564 2.144-5.664 2.664-.776.196-.94-.382-.962-.971-.032-.848-.009-1.699-.009-2.547h.006c0-.68.012-1.356-.003-2.035-.032-1.302.532-1.78 1.76-1.456zm3.094 11.663c1.365-.629 2.859-.984 4.31-1.405.679-.195 1.079.35 1.198.866.245 1.059.38 4.523.392 5.157.012.604-.165.917-.816.598-1.547-.76-3.097-1.515-4.642-2.285a3.746 3.746 0 0 1-.725-.505c-1.342-1.149-1.345-1.675.283-2.426zm10.831 7.892c1.69-1.064 3.435-1.987 5.49-2.074 1.237-.054 1.356.05 1.45 1.326.035.463-.26 4.086-.497 5.415-.113.634-.367.962-.968.367-1.624-1.621-3.405-3.031-5.433-4.114-.51-.273-.556-.598-.042-.92zM5.298 78.43c-.185.538-.377.51-.792.529-.672.03-1.2-.418-1.708-.794-.311-.231-.926-.803-.702-1.145.257-.397.893.027 1.323.192.46.18.995.343 1.419.601.185.115.528.412.46.617zm86.51 2.032c-.087-1.473-.888-2.276-2.052-2.95-1.425-.82-2.793-1.75-4.2-2.606-.702-.427-.795-.956-.532-1.711.693-1.981 1.025-4.02.932-6.134-.093-2.162-.493-2.55-2.61-2.186-2.208.38-3.952.905-5.724 2.24-.502.38-1.024.917-1.508.548-.636-.488-1.198-.818-1.89-1.224-.422-.25-.42-.614-.407-1.032.069-2.188.173-4.398-.054-6.566-.152-1.447-.992-1.747-2.44-1.254-2.08.703-4.137 1.467-6.213 2.183-.242.084-.666.24-.965-.322-.448-.845-.72-1.404-.836-2.327-.111-.857.92-.806 1.481-1.095.41-.213 1.1-.424 1.518-.598 1.344-.565 2.488-1.136 4.056-2.83.87-.937.92-1.713.039-2.624-.962-.992-2.058-1.738-3.438-2.039-1.07-.231-2.124-.544-3.176-.857-1.41-.42-1.386-.436-1.38-1.966.003-.716.027-1.41.83-1.666 2.098-.667 3.627-1.807 5.386-3.052 1.855-1.32 2.163-2.92.368-4.29-1.332-1.02-2.784-1.91-4.263-2.703-1.813-.972-1.911-.948-1.73-3.01.046-.505.309-1.059.631-1.452.481-.584 1.141-1.014 1.66-1.57.978-1.046 1.97-1.72 2.848-3.1.72-1.134.334-2.372-.846-3.025-1.625-.899-3.291-1.723-4.904-2.64-.359-.204-.747-.628-.825-1.01-.591-2.923-2.342-5.175-4.295-7.216-1.371-1.431-2.662-3.115-4.77-3.638-.156-.04-.281-.268-.383-.43-.361-.572-.666-1.182-1.06-1.726-1.362-1.88-3.39-2.848-5.47-3.446-2.234-.64-6.37.707-7.467 3.762-.41 1.142-.77 1.981-1.021 3.307-.111.59-.359.98-.926 1.031-.517.048-1.04.124-1.213-.228-.433-.872-.83-1.892-1.446-2.664-.284-.355-1.5-1.353-1.89-1.47-1.42-.428-2.928-.815-4.983.03-2.93 1.208-4.714 3.35-5.075 6.554-.078.668-.427.836-.94.986-2.337.686-4.56 1.624-6.408 3.254-.974.736-1.9.85-3.014.574-1.532-.376-3.459-.138-4.648 1.104-.815.853-1.442 1.38-2.064 2.33-.917 1.404-1.12 2.456-1.12 3.96 0 .496.278 1.63.49 2.02.58 1.062 1.132 1.407 1.9 2.063.672.577 1.416 1.073 1.741 1.78.547 1.182.825 2.547 1.234 3.797.833 2.547 2.479 4.745 4.674 6.143 1.213.773 2.124 1.69 3.095 2.676 1.443 1.465 1.508 3.106 1.204 4.946-.329 1.973-1.189 3.699-2.252 5.34-.98 1.507-1.757 3.085-2.052 4.89-.063.378-.108.76-.204 1.136-.131.52-.325 1.031-.475 1.548-.442 1.546-.594 2.749-.244 3.726.158.448.546.878.845 1.001.212.09.098.637.098.842-.035 2.808.329 4.853 1.569 7.378.516 1.05.498 1.753-.075 1.853-.164.03-.989-.07-1.147-.042-.675.123-.887-.16-.896-.824-.021-1.341-.753-2.415-1.5-3.434-.516-.71-1.054-.613-1.424.177-.138.292-.126.656-.177.987-.12.754-.194 1.518-.367 2.258-.126.532-.254.857-.97.324a9.527 9.527 0 0 0-3.128-1.512c-1.111-.3-1.267-.04-1.105 1.097.074.545.173 1.095.343 1.615.239.71-.018.833-.654.707-.911-.18-1.768-.487-2.688-.602-.353-.042-.941-.048-1.144.259-.204.313.146.77.328 1.058.615.965 1.482 2.057 2.476 2.691 1.267.81 1.739 1.904 1.957 3.227.275 1.671 1.52 2.537 2.87 2.916 1.91.532 3.928.37 5.87-.13a78.908 78.908 0 0 0 4.74-1.361c1.398-.451 2.742-1.074 4.152-1.486.777-.225 1.66-.345 2.45-.216 1.269.207 2.485.842 3.757.96 1.338.122 2.19.327 3.423 1.376a8.858 8.858 0 0 0 4.34 1.633c2.548.24 5.4.018 7.97-.033 1.389-.027 2.808-.006 4.152-.292 3.127-.664 6.219-1.503 9.325-2.267.32-.078.66-.186.977-.153.783.087 1.553.261 2.33.376 3.608.54 7.225.637 10.858.273 2.807-.28 10.565-.76 13.265-.541 1.95.021 3.605-.349 5.427-1.248.753-.379 1.144-.977 1.079-2.138z" mask="url(#b)"/>
        </g>
        <path fill="#000" d="M24.633 28.866c-.908.064-.852-.688-.9-1.41-.023-.346.159-.809.377-1.133.131-.19.729-.38 1.016.201.092.184.19.623.164.93-.039.474.31 1.346-.657 1.412zm.152-3.902c-.547-.166-1.07.11-1.302.583-.4.815-.989 1.425-.995 2.372-.006.62.317 1.128.636 1.422.926.857 3.098.172 3.474-1.03.487-1.546-.257-2.881-1.813-3.347z"/>
        <path fill="#000" d="M28.579 21.602c-1.213-1.052-2.519-1.14-3.872-1.26-.627-.057-1.54.244-2.01.695-1.168 1.127-1.915 2.577-2.237 4.212-.06.289-.063.596-.03.884.018.133.134.361.293.364.152.006.29-.216.304-.34.147-1.377 1.201-2.216 1.921-3.238.535-.755 1.228-1.052 2.195-.586 2.047.983 3.633 2.441 4.329 4.687.209.683.245 1.227.245 1.949 0 .3 0 .61.262.562.257-.048.335-.3.449-.601.409-1.098 1.14-1.85 1.096-3.134-.033-.905-.6-1.653-1.073-2.309-.507-.712-1.2-1.305-1.872-1.885M8.828 25.986c-.552.075-.767-.174-.902-.665-.134-.48-.024-.754.323-1.277.15-.226.77-.566 1.12-.415.469.204.547.49.535 1.103a1.27 1.27 0 0 1-1.076 1.254zm1.279-3.49c-.269-.22-1.82-.293-2.566.796-.478.697-.989 1.738-.77 2.54.077.283.352.542.594.737.182.148.496.123.684.265.427.319.621 1.007 1.147.917.529-.09.52-.764.794-1.227.24-.397.574-.697.798-1.103.137-.247.412-.635.38-1.104-.049-.667-.535-1.398-1.061-1.822z"/>
    </g>
</svg>
