<svg xmlns="http://www.w3.org/2000/svg" width="17" height="17" viewBox="0 0 17 17">
    <path fill="#FFF" fill-rule="evenodd" d="M14.21 6.707a.69.69 0 0 0-.198-.51l-1.007-.995a.68.68 0 0 0-.498-.21.68.68 0 0 0-.499.21L7.493 9.706l-2.501-2.5a.68.68 0 0 0-.499-.211.68.68 0 0 0-.498.21l-1.007.996a.69.69 0 0 0-.199.51c0 .199.066.365.2.497l4.006 4.007c.14.14.306.21.498.21.2 0 .369-.07.509-.21l6.01-6.01a.676.676 0 0 0 .199-.498zm1.65-2.468A8.285 8.285 0 0 1 17 8.5c0 1.542-.38 2.964-1.14 4.267a8.462 8.462 0 0 1-3.093 3.093A8.315 8.315 0 0 1 8.5 17a8.315 8.315 0 0 1-4.267-1.14 8.462 8.462 0 0 1-3.093-3.093A8.315 8.315 0 0 1 0 8.5c0-1.542.38-2.964 1.14-4.267A8.462 8.462 0 0 1 4.233 1.14 8.315 8.315 0 0 1 8.5 0c1.542 0 2.964.38 4.267 1.14a8.449 8.449 0 0 1 3.093 3.099z"/>
</svg>
