<svg xmlns="http://www.w3.org/2000/svg" width="11" height="11" viewBox="0 0 11 11">
    <path fill="#BEBEBE" fill-rule="evenodd" d="M7.774 6.5h1.82c.104-.468.156-.832.156-1.092 0-.26-.052-.624-.156-1.092h-1.82a7.579 7.579 0 0 1 0 2.184zm-.975 2.99a4.238 4.238 0 0 0 1.359-.754 4.381 4.381 0 0 0 1.007-1.17H7.566a8.334 8.334 0 0 1-.767 1.924zM6.682 6.5a7.579 7.579 0 0 0 0-2.184H4.134a7.689 7.689 0 0 0-.065 1.092c0 .433.022.797.065 1.092h2.548zM5.408 9.724c.494-.72.84-1.439 1.04-2.158h-2.08a7.736 7.736 0 0 0 1.04 2.158zM3.25 3.25a8.137 8.137 0 0 1 .767-1.937 4.25 4.25 0 0 0-1.365.76A4.22 4.22 0 0 0 1.651 3.25H3.25zM1.651 7.566c.26.442.596.832 1.008 1.17.411.338.864.59 1.358.754a8.334 8.334 0 0 1-.767-1.924H1.651zM1.222 6.5h1.82a9.925 9.925 0 0 1-.065-1.092c0-.338.022-.702.065-1.092h-1.82c-.104.468-.156.832-.156 1.092 0 .26.052.624.156 1.092zm4.186-5.408a7.736 7.736 0 0 0-1.04 2.158h2.08c-.2-.72-.546-1.439-1.04-2.158zM9.165 3.25a4.22 4.22 0 0 0-1.001-1.176 4.25 4.25 0 0 0-1.365-.761c.33.59.585 1.235.767 1.937h1.599zM5.408 0c.988 0 1.902.247 2.743.741a5.126 5.126 0 0 1 1.924 1.924c.494.84.741 1.755.741 2.743s-.247 1.902-.741 2.743a5.126 5.126 0 0 1-1.924 1.924 5.319 5.319 0 0 1-2.743.741 5.319 5.319 0 0 1-2.743-.741A5.223 5.223 0 0 1 .741 8.138 5.295 5.295 0 0 1 0 5.408c0-.98.247-1.89.741-2.73A5.322 5.322 0 0 1 2.678.741 5.295 5.295 0 0 1 5.408 0z"/>
</svg>
