<svg xmlns="http://www.w3.org/2000/svg" width="82" height="16" viewBox="0 0 82 16">
    <g fill="none" fill-rule="evenodd">
        <path fill="#B0B1B5" fill-rule="nonzero" d="M.899 7.455l1.208-.616.42 5.678L4.85 9.73l3.617-.093-4.186-3.906 1.185-.604 6.088 5.681-6.106.157-3.941 4.725z"/>
        <path fill="#5F1F7C" d="M.832 6.55L.375.375 4.816 4.52l-1.185.604-1.774-1.656.183 2.467z"/>
        <path fill="#5D1E7A" d="M22.216 1.072c-.555-.117-1.024-.176-1.408-.176-1.045 0-1.965.243-2.76.728a4.866 4.866 0 0 0-1.84 2.024c-.432.864-.648 1.85-.648 2.96 0 1.067.197 2.024.592 2.872a4.63 4.63 0 0 0 1.76 2.008c.779.49 1.717.736 2.816.736.47 0 .995-.064 1.576-.192.581-.128 1.075-.299 1.48-.512L23 9.984c-.8.33-1.595.496-2.384.496-.597 0-1.115-.173-1.552-.52-.437-.347-.77-.816-1-1.408a5.384 5.384 0 0 1-.344-1.96c0-.8.13-1.499.392-2.096.261-.597.621-1.056 1.08-1.376.459-.32.976-.48 1.552-.48.363 0 .667.024.912.072.245.048.576.136.992.264l.4.112.64-1.488a5.326 5.326 0 0 0-1.472-.528zm6.216 5.216c.517-.256.952-.384 1.304-.384L29.32 4.24c-.384 0-.827.133-1.328.4a6.745 6.745 0 0 0-1.312.896l-.688-1.296h-1.088V12h2.08V7.264a6.64 6.64 0 0 1 1.448-.976zM35.352 12h2.288l-2.384-3.648 2.64-4.112h-2.272l-1.6 2.48-1.76-2.736-1.936.592 2.368 3.472L30.056 12h2.304l1.552-2.336L35.352 12zm12.144 0h1.28V1.12h-.8L44.2 6.672 40.296 1.12h-.752V12h1.264V3.776l3.216 4.64.432-.08 3.04-4.528V12zm10.36-1.752a3.486 3.486 0 0 1-1.352 1.44c-.587.347-1.27.52-2.048.52-.747 0-1.397-.173-1.952-.52a3.356 3.356 0 0 1-1.272-1.456c-.293-.624-.44-1.336-.44-2.136.01-.79.168-1.49.472-2.104a3.413 3.413 0 0 1 1.32-1.44c.576-.347 1.248-.52 2.016-.52 1.163 0 2.075.37 2.736 1.112.661.741.992 1.741.992 3 0 .79-.157 1.49-.472 2.104zm-1.512.048c.448-.56.677-1.272.688-2.136 0-.917-.213-1.656-.64-2.216-.427-.56-1.03-.84-1.808-.84-.768 0-1.376.28-1.824.84-.448.56-.677 1.272-.688 2.136 0 .907.213 1.643.64 2.208.427.565 1.03.848 1.808.848.768 0 1.376-.28 1.824-.84zm7.4.44c-.485.267-.92.4-1.304.4-.501 0-.859-.16-1.072-.48-.213-.32-.32-.768-.32-1.344V4.24h-1.264v5.248c0 .832.2 1.496.6 1.992.4.496 1.01.744 1.832.744.49 0 1.008-.128 1.552-.384a4.665 4.665 0 0 0 1.376-.96l.208 1.12h.944V4.224h-1.264v5.504a5.036 5.036 0 0 1-1.288 1.008zm5.352 1.296c.501.117.933.176 1.296.176 1.003 0 1.773-.197 2.312-.592.539-.395.808-.95.808-1.664 0-1.003-.87-1.824-2.608-2.464-.576-.192-1.019-.39-1.328-.592-.31-.203-.47-.443-.48-.72 0-.33.152-.6.456-.808.304-.208.696-.312 1.176-.312.395 0 .747.048 1.056.144.31.096.64.224.992.384l.4-.864c-.277-.203-.659-.368-1.144-.496-.485-.128-.91-.192-1.272-.192-.896 0-1.603.195-2.12.584-.517.39-.776.925-.776 1.608 0 .565.235 1.03.704 1.392.47.363 1.077.667 1.824.912 1.28.427 1.92.928 1.92 1.504 0 .363-.17.645-.512.848-.341.203-.805.304-1.392.304-.672 0-1.37-.181-2.096-.544l-.4.912c.288.203.683.363 1.184.48zm11.576-6.816c.539.79.808 1.824.808 3.104h-5.632c.032.875.27 1.565.712 2.072.443.507 1.123.76 2.04.76.416 0 .797-.053 1.144-.16.347-.107.76-.277 1.24-.512l.4.928a7.44 7.44 0 0 1-1.312.584 4.637 4.637 0 0 1-1.456.216c-1.323 0-2.33-.373-3.024-1.12-.693-.747-1.04-1.744-1.04-2.992 0-.79.141-1.49.424-2.104a3.288 3.288 0 0 1 1.248-1.44c.55-.347 1.197-.52 1.944-.52 1.13 0 1.965.395 2.504 1.184zm-4.112.52c-.379.421-.605.995-.68 1.72h4.352c-.181-1.568-.885-2.352-2.112-2.352-.661 0-1.181.21-1.56.632z"/>
    </g>
</svg>
