<svg xmlns="http://www.w3.org/2000/svg" width="17" height="17" viewBox="0 0 17 17">
    <path fill="#AFB4B8" fill-rule="evenodd" d="M11.095 7.867a3.04 3.04 0 0 0 .582-.879c.143-.327.215-.674.215-1.042 0-.613-.153-1.178-.46-1.696a3.468 3.468 0 0 0-1.236-1.236 3.269 3.269 0 0 0-1.696-.46c-.613 0-1.178.153-1.696.46-.518.306-.93.718-1.236 1.236a3.269 3.269 0 0 0-.46 1.696h1.676c0-.463.17-.865.51-1.206.341-.34.743-.51 1.206-.51.463 0 .865.17 1.206.51.34.34.51.736.51 1.185 0 .45-.17.859-.51 1.226L8.663 8.214c-.313.34-.551.708-.715 1.103a3.1 3.1 0 0 0-.286 1.288v.45h1.676c0-.587.095-1.07.286-1.452.122-.245.36-.558.715-.94l.756-.796zm-1.757 6.579V12.77H7.662v1.676h1.676zM8.5 0a8.36 8.36 0 0 1 4.311 1.165 8.056 8.056 0 0 1 3.024 3.024A8.36 8.36 0 0 1 17 8.5a8.36 8.36 0 0 1-1.165 4.311 8.056 8.056 0 0 1-3.024 3.024A8.36 8.36 0 0 1 8.5 17a8.36 8.36 0 0 1-4.311-1.165 8.209 8.209 0 0 1-3.024-3.044A8.322 8.322 0 0 1 0 8.5c0-1.54.388-2.97 1.165-4.29a8.365 8.365 0 0 1 3.044-3.045A8.322 8.322 0 0 1 8.5 0z"/>
</svg>
