<svg xmlns="http://www.w3.org/2000/svg" width="139" height="27" viewBox="0 0 139 27">
    <g fill="none" fill-rule="evenodd">
        <path fill="#B0B1B5" fill-rule="nonzero" d="M.892 12.802l2.038-1.039.709 9.582 3.923-4.703 6.103-.157L6.6 9.893l2-1.02 10.273 9.588-10.304.265-6.65 7.972z"/>
        <path fill="#5F1F7C" d="M.779 11.275L.008.855l7.495 6.994-2 1.02-2.994-2.795.308 4.163z"/>
        <path fill="#5D1E7A" d="M37.31 2.049c-.947-.2-1.747-.3-2.402-.3-1.783 0-3.353.413-4.708 1.24-1.356.827-2.402 1.976-3.14 3.448-.736 1.472-1.105 3.153-1.105 5.043 0 1.818.337 3.449 1.01 4.893a7.893 7.893 0 0 0 3.003 3.421c1.328.836 2.93 1.254 4.803 1.254.8 0 1.697-.109 2.689-.327.991-.218 1.833-.509 2.524-.872l-1.337-2.617c-1.365.563-2.72.845-4.067.845-1.019 0-1.901-.295-2.647-.886-.746-.59-1.315-1.39-1.706-2.399-.391-1.008-.587-2.121-.587-3.339 0-1.363.223-2.553.669-3.57.446-1.019 1.06-1.8 1.842-2.345A4.521 4.521 0 0 1 34.8 4.72c.618 0 1.137.04 1.555.123.419.081.983.231 1.693.45l.682.19 1.092-2.535c-.728-.4-1.565-.7-2.511-.9zm10.603 8.886c.883-.436 1.624-.654 2.225-.654l-.71-2.835c-.655 0-1.41.227-2.265.681-.855.455-1.601.964-2.238 1.527L43.75 7.446h-1.856v13.22h3.548v-8.068a11.328 11.328 0 0 1 2.47-1.663zm11.805 9.732h3.903l-4.067-6.215 4.504-7.006h-3.876l-2.73 4.225L54.45 7.01l-3.302 1.008 4.04 5.916-4.504 6.733h3.93l2.648-3.98 2.456 3.98zm20.716 0h2.184V2.13h-1.365l-6.441 9.46-6.66-9.46h-1.283v18.537h2.156V6.655l5.487 7.906.736-.137 5.186-7.714v13.957zm17.673-2.985a5.943 5.943 0 0 1-2.306 2.453c-1 .59-2.165.886-3.494.886-1.273 0-2.383-.295-3.33-.886-.946-.59-1.67-1.417-2.17-2.48-.5-1.064-.75-2.277-.75-3.64.018-1.344.287-2.54.805-3.584a5.817 5.817 0 0 1 2.252-2.454c.982-.59 2.129-.885 3.439-.885 1.983 0 3.54.631 4.667 1.894 1.128 1.263 1.692 2.967 1.692 5.111 0 1.345-.268 2.54-.805 3.585zm-2.579.082c.764-.955 1.155-2.168 1.174-3.64 0-1.562-.364-2.82-1.092-3.775-.728-.954-1.756-1.431-3.084-1.431-1.31 0-2.348.477-3.112 1.431-.764.954-1.155 2.167-1.174 3.64 0 1.544.364 2.798 1.092 3.76.728.964 1.756 1.446 3.084 1.446 1.31 0 2.348-.477 3.112-1.431zm12.624.75c-.828.454-1.57.68-2.225.68-.855 0-1.465-.272-1.829-.817-.364-.545-.546-1.309-.546-2.29V7.446h-2.156v8.941c0 1.417.341 2.549 1.024 3.394.682.845 1.724 1.267 3.125 1.267.837 0 1.72-.218 2.647-.654.928-.436 1.71-.981 2.348-1.635l.355 1.908h1.61V7.419h-2.156v9.377a8.59 8.59 0 0 1-2.197 1.717zm9.13 2.207c.855.2 1.592.3 2.21.3 1.71 0 3.025-.336 3.944-1.009.92-.672 1.379-1.617 1.379-2.835 0-1.708-1.483-3.107-4.45-4.197-.982-.328-1.737-.664-2.265-1.009-.527-.345-.8-.754-.819-1.227 0-.563.26-1.022.778-1.376.519-.355 1.188-.532 2.006-.532.674 0 1.274.082 1.802.245.528.164 1.092.382 1.692.655l.682-1.472c-.473-.346-1.123-.627-1.951-.845-.828-.218-1.551-.327-2.17-.327-1.528 0-2.734.331-3.616.995-.883.663-1.324 1.576-1.324 2.74 0 .962.4 1.753 1.2 2.37.801.619 1.839 1.136 3.112 1.554 2.184.727 3.276 1.581 3.276 2.563 0 .618-.292 1.1-.874 1.445-.582.345-1.374.517-2.374.517-1.147 0-2.339-.308-3.576-.926l-.682 1.553c.49.346 1.164.618 2.02.818zM137.028 9.11c.919 1.345 1.378 3.107 1.378 5.288H128.8c.054 1.49.459 2.667 1.214 3.53.755.863 1.915 1.295 3.48 1.295.71 0 1.36-.09 1.952-.273.591-.181 1.296-.472 2.115-.872l.682 1.581a12.7 12.7 0 0 1-2.238.995c-.746.245-1.574.368-2.484.368-2.256 0-3.975-.636-5.158-1.908-1.183-1.272-1.774-2.971-1.774-5.098 0-1.344.24-2.54.723-3.584.482-1.045 1.192-1.863 2.129-2.454.937-.59 2.042-.885 3.316-.885 1.929 0 3.353.672 4.272 2.017zm-7.015.886c-.646.717-1.033 1.694-1.16 2.93h7.424c-.31-2.671-1.51-4.007-3.603-4.007-1.128 0-2.015.359-2.66 1.077z"/>
    </g>
</svg>
