<svg xmlns="http://www.w3.org/2000/svg" width="12" height="12" viewBox="0 0 12 12">
    <path fill="#817E87" fill-rule="evenodd" d="M11.786 5.09v1.606a.775.775 0 0 1-.235.57.775.775 0 0 1-.569.234H7.5v3.482a.775.775 0 0 1-.234.57.775.775 0 0 1-.57.234H5.09a.775.775 0 0 1-.569-.235.775.775 0 0 1-.234-.569V7.5H.804a.775.775 0 0 1-.57-.234.775.775 0 0 1-.234-.57V5.09c0-.223.078-.413.234-.569a.775.775 0 0 1 .57-.234h3.482V.804c0-.224.078-.413.234-.57A.775.775 0 0 1 5.09 0h1.606c.224 0 .413.078.57.234a.775.775 0 0 1 .234.57v3.482h3.482c.223 0 .413.078.57.234a.775.775 0 0 1 .234.57z"/>
</svg>
