<svg xmlns="http://www.w3.org/2000/svg" width="18" height="18" viewBox="0 0 18 18">
    <path fill="#B1B1B4" fill-rule="evenodd" d="M11.429 8.857c0-.789-.28-1.462-.837-2.02A2.753 2.753 0 0 0 8.572 6c-.79 0-1.463.279-2.02.837a2.753 2.753 0 0 0-.838 2.02c0 .789.28 1.462.837 2.02a2.753 2.753 0 0 0 2.02.837c.79 0 1.462-.279 2.02-.837a2.753 2.753 0 0 0 .838-2.02zm5.714-1.216v2.477a.43.43 0 0 1-.09.257.34.34 0 0 1-.223.145l-2.064.313a7.15 7.15 0 0 1-.436 1.015c.26.372.659.886 1.195 1.54.074.09.111.183.111.28a.372.372 0 0 1-.1.256c-.201.275-.57.677-1.105 1.205-.536.529-.886.793-1.05.793a.545.545 0 0 1-.29-.1l-1.54-1.206a6.368 6.368 0 0 1-1.015.424c-.12 1.012-.227 1.704-.324 2.076-.052.208-.186.313-.402.313H7.333a.422.422 0 0 1-.274-.095.33.33 0 0 1-.128-.24l-.313-2.054a6.898 6.898 0 0 1-1.004-.413L4.04 15.821a.402.402 0 0 1-.279.1.385.385 0 0 1-.279-.122c-.937-.848-1.551-1.473-1.841-1.875a.437.437 0 0 1 .01-.513c.112-.157.302-.404.57-.742.268-.339.469-.601.603-.787-.201-.372-.354-.74-.458-1.105l-2.042-.302a.352.352 0 0 1-.235-.14.422.422 0 0 1-.089-.261V7.596c0-.09.03-.175.09-.257.059-.082.13-.13.211-.145l2.076-.312c.104-.343.25-.685.436-1.027a25.404 25.404 0 0 0-1.195-1.54.42.42 0 0 1-.111-.268.47.47 0 0 1 .1-.257c.194-.268.56-.668 1.1-1.2.539-.532.89-.798 1.054-.798.097 0 .194.038.29.112l1.54 1.194a6.368 6.368 0 0 1 1.016-.424c.12-1.012.227-1.704.324-2.076.052-.208.186-.312.402-.312H9.81c.104 0 .196.031.274.095a.33.33 0 0 1 .128.24l.313 2.053c.364.12.699.257 1.004.413l1.585-1.194a.362.362 0 0 1 .268-.1c.096 0 .19.037.279.111.96.885 1.573 1.518 1.841 1.897a.36.36 0 0 1 .078.246.43.43 0 0 1-.089.257 21.52 21.52 0 0 1-.57.742c-.267.338-.468.6-.602.787.194.372.346.736.458 1.093l2.042.313a.352.352 0 0 1 .235.14c.06.077.089.165.089.262z"/>
</svg>
