<svg xmlns="http://www.w3.org/2000/svg" width="13" height="14" viewBox="0 0 13 14">
    <path fill="#B1B1B4" fill-rule="evenodd" d="M10.614 2.205a6.538 6.538 0 0 1 1.649 2.142 6.24 6.24 0 0 1 .612 2.703 6.242 6.242 0 0 1-.867 3.213 6.365 6.365 0 0 1-2.295 2.295 6.242 6.242 0 0 1-3.213.867 6.242 6.242 0 0 1-3.213-.867 6.365 6.365 0 0 1-2.295-2.295A6.242 6.242 0 0 1 .125 7.05c0-.94.21-1.842.629-2.703a6.342 6.342 0 0 1 1.632-2.142l.986.986a5.007 5.007 0 0 0-1.309 1.683 4.87 4.87 0 0 0-.51 2.176c0 .907.221 1.74.663 2.499a4.99 4.99 0 0 0 1.785 1.785c.76.442 1.592.663 2.499.663s1.74-.221 2.499-.663a4.99 4.99 0 0 0 1.785-1.785c.442-.76.663-1.592.663-2.499a4.844 4.844 0 0 0-1.819-3.825l.986-1.02zM7.197.675v7.072H5.803V.675h1.394z"/>
</svg>
