<svg xmlns="http://www.w3.org/2000/svg" width="42" height="42" viewBox="0 0 42 42">
    <path fill="#FFF" fill-opacity=".208" fill-rule="evenodd" d="M.774.774h6.868v6.868H.774V.774zm0 13.735h6.868v6.868H.774V14.51zm6.868-6.867h6.867v6.867H7.642V7.642zm0 13.735h6.867v6.868H7.642v-6.868zM14.509.774h6.868v6.868H14.51V.774zm0 13.735h6.868v6.868H14.51V14.51zm6.868-6.867h6.868v6.867h-6.868V7.642zm0 13.735h6.868v6.868h-6.868v-6.868zM28.245.774h6.868v6.868h-6.868V.774zm0 13.735h6.868v6.868h-6.868V14.51zm6.868-6.867h6.868v6.867h-6.868V7.642zm0 13.735h6.868v6.868h-6.868v-6.868zM.773 28.245h6.869v6.868H.774v-6.868zm6.869 6.868h6.867v6.868H7.642v-6.868zm6.867-6.868h6.868v6.868H14.51v-6.868zm6.868 6.868h6.868v6.868h-6.868v-6.868zm6.868-6.868h6.868v6.868h-6.868v-6.868zm6.868 6.868h6.868v6.868h-6.868v-6.868z"/>
</svg>
