<svg xmlns="http://www.w3.org/2000/svg" xmlns:xlink="http://www.w3.org/1999/xlink" width="60" height="60" viewBox="0 0 60 60">
    <defs>
        <rect id="a" width="60" height="60" rx="16"/>
    </defs>
    <g fill="none" fill-rule="evenodd">
        <g transform="matrix(1 0 0 -1 0 60)">
            <use fill="#FFF" xlink:href="#a"/>
            <rect width="59" height="59" x=".5" y=".5" stroke="#EBEBEB" rx="16"/>
        </g>
        <g fill="#5E1E7B" fill-rule="nonzero" transform="matrix(1 0 0 -1 16 52)">
            <circle cx="6.124" cy="30.124" r="5" transform="rotate(-75 6.124 30.124)"/>
            <path d="M26.798 11.915l-9.816-1.908 6.816-8.862z"/>
            <path d="M11.134 18.648l1.89 23.258c.187 2.296 3.466 2.51 3.95.258l6.763-31.505a2 2 0 1 0-3.91-.84l-3.915 18.233-1.774-21.827c-.183-2.256-3.383-2.52-3.933-.324L4.123 30.175a2 2 0 0 0 3.88.972l1.52-6.068 1.417-5.655.194-.776z"/>
        </g>
    </g>
</svg>
