<svg xmlns="http://www.w3.org/2000/svg" xmlns:xlink="http://www.w3.org/1999/xlink" width="60" height="60" viewBox="0 0 60 60">
    <defs>
        <rect id="a" width="60" height="60" rx="16"/>
    </defs>
    <g fill="none" fill-rule="evenodd">
        <g transform="matrix(0 1 1 0 0 0)">
            <use fill="#FFF" xlink:href="#a"/>
            <rect width="59" height="59" x=".5" y=".5" stroke="#EBEBEB" rx="16"/>
        </g>
        <g fill="#5E1E7B" fill-rule="nonzero">
            <g transform="matrix(0 1 1 0 28 19)">
                <circle cx="6.124" cy="6.124" r="5" transform="rotate(-75 6.124 6.124)"/>
                <path d="M20.889 13.638l-9.987.523 5.517 9.725z"/>
            </g>
            <path d="M42.306 32.68a2 2 0 1 1-.241 3.993L9.918 34.728c-2.24-.136-2.592-3.291-.437-3.917l23.723-6.892a2 2 0 1 1 1.116 3.841l-12.64 3.672 20.626 1.248z"/>
        </g>
    </g>
</svg>
