<?xml version="1.0" encoding="UTF-8"?>
<svg width="225px" height="145px" viewBox="0 0 225 145" version="1.1" xmlns="http://www.w3.org/2000/svg" xmlns:xlink="http://www.w3.org/1999/xlink">
    <!-- Generator: Sketch 46 (44423) - http://www.bohemiancoding.com/sketch -->
    <title>initab_logo</title>
    <desc>Created with Sketch.</desc>
    <defs></defs>
    <g id="Page-1" stroke="none" stroke-width="1" fill="none" fill-rule="evenodd">
        <g id="Group-5" transform="translate(0.000000, 1.000000)" fill="#6272A4">
            <path d="M81.2656922,13 L54.460381,13 C50.6405214,13 47.1543546,15.1761068 45.4765914,18.6077883 L1.96412484,107.607788 C1.29548278,108.975423 0.947914466,110.477664 0.947914466,112 C0.947914466,117.522847 5.42506697,122 10.9479145,122 L40.9277073,122 L81.2656922,13 Z" id="Combined-Shape"></path>
            <path d="M182,0 L100.889084,0 C96.7048022,-2.94762045e-15 92.9629247,2.60512247 91.5106889,6.52930689 L45.6216052,130.529307 C45.2104727,131.640256 45,132.815417 45,134 C45,139.522847 49.4771525,144 55,144 L182,144 L182,123 L126,123 C120.477153,123 116,118.522847 116,113 L116,31 C116,25.4771525 120.477153,21 126,21 L182,21 L182,-2.22044605e-15 Z" id="Combined-Shape"></path>
            <path d="M158,0 L214.927011,0 C220.449858,-1.01437955e-15 224.927011,4.4771525 224.927011,10 L224.927011,21.1855043 C224.30346,21.0637796 223.659178,21 223,21 L158,21 L158,4.4408921e-16 Z M158,144 L214.927011,144 C220.449858,144 224.927011,139.522847 224.927011,134 L224.927011,122.814496 C224.30346,122.93622 223.659178,123 223,123 L158,123 L158,144 Z" id="Combined-Shape"></path>
            <path d="M174,67 L174,48 L166,48 L166,67 L147,67 L147,75 L166,75 L166,94 L174,94 L174,75 L193,75 L193,67 L174,67 Z M139,31 L202,31 C207.522847,31 212,35.4771525 212,41 L212,104 C212,109.522847 207.522847,114 202,114 L139,114 C133.477153,114 129,109.522847 129,104 L129,41 L129,41 C129,35.4771525 133.477153,31 139,31 L139,31 Z" id="Combined-Shape"></path>
        </g>
    </g>
</svg>