<svg enable-background="new 0 0 512 512" viewBox="0 0 512 512" xmlns="http://www.w3.org/2000/svg"><circle cx="256" cy="256" fill="#f0f0f0" r="256"/><path d="m345.043 256c0 22.261-39.866 77.913-89.043 77.913s-89.043-55.652-89.043-77.913c0-49.178 39.866-89.043 89.043-89.043s89.043 39.865 89.043 89.043z" fill="#d80027"/><path d="m345.043 256c0 49.178-39.866 89.043-89.043 89.043s-89.043-39.865-89.043-89.043" fill="#0052b4"/><path d="m353.427 319.639h33.391v22.261h-33.391z" transform="matrix(.7071 -.7071 .7071 .7071 -125.4831 358.5964)"/><path d="m314.07 358.994h33.391v22.261h-33.391z" transform="matrix(.7071 -.7071 .7071 .7071 -164.8388 342.2935)"/><path d="m400.656 366.851h33.391v22.261h-33.391z" transform="matrix(.7071 -.7071 .7071 .7071 -145.034 405.8207)"/><path d="m361.299 406.213h33.391v22.261h-33.391z" transform="matrix(.7071 -.7071 .7071 .7071 -184.3942 389.5197)"/><path d="m377.04 343.247h33.391v22.261h-33.391z" transform="matrix(.7071 -.7071 .7071 .7071 -135.2602 382.2079)"/><path d="m337.694 382.602h33.391v22.261h-33.391z" transform="matrix(.7071 -.7071 .7071 .7071 -174.6126 365.9128)"/><path d="m329.544 126.805h89.043v22.261h-89.043z" transform="matrix(-.7071 -.7071 .7071 -.7071 541.0344 499.9738)"/><path d="m314.081 130.749h33.391v22.26h-33.391z" transform="matrix(-.7071 -.7071 .7071 -.7071 464.3475 476.0975)"/><path d="m353.427 170.098h33.391v22.26h-33.391z" transform="matrix(-.7071 -.7071 .7071 -.7071 503.692 571.0911)"/><path d="m361.282 83.526h33.391v22.261h-33.391z" transform="matrix(-.7071 -.7071 .7071 -.7071 578.3161 428.8593)"/><path d="m400.651 122.879h33.391v22.261h-33.391z" transform="matrix(-.7071 -.7071 .7071 -.7071 617.6954 523.8765)"/><path d="m69.81 386.542h89.043v22.261h-89.043z" transform="matrix(.7071 .7071 -.7071 .7071 314.6838 35.6313)"/><path d="m140.919 382.6h33.391v22.26h-33.391z" transform="matrix(.7071 .7071 -.7071 .7071 324.573 3.8704)"/><path d="m101.569 343.252h33.391v22.261h-33.391z" transform="matrix(.7071 .7071 -.7071 .7071 285.2246 20.1705)"/><path d="m117.031 339.316h89.043v22.261h-89.043z" transform="matrix(.7071 .7071 -.7071 .7071 295.1205 -11.5916)"/><path d="m69.81 103.201h89.043v22.261h-89.043z" transform="matrix(-.7071 .7071 -.7071 -.7071 276.0196 114.331)"/><path d="m93.412 126.806h89.043v22.261h-89.043z" transform="matrix(-.7071 .7071 -.7071 -.7071 333.0029 137.9383)"/><path d="m117.038 150.428h89.043v22.26h-89.043z" transform="matrix(-.7071 .7071 -.7071 -.7071 390.0373 161.557)"/></svg>