<?xml version="1.0" encoding="utf-8"?>
<!-- Generator: Adobe Illustrator 23.0.1, SVG Export Plug-In . SVG Version: 6.00 Build 0)  -->
<svg version="1.1"
	 id="svg2" xmlns:cc="http://creativecommons.org/ns#" xmlns:dc="http://purl.org/dc/elements/1.1/" xmlns:inkscape="http://www.inkscape.org/namespaces/inkscape" xmlns:rdf="http://www.w3.org/1999/02/22-rdf-syntax-ns#" xmlns:svg="http://www.w3.org/2000/svg"
	 xmlns="http://www.w3.org/2000/svg" xmlns:xlink="http://www.w3.org/1999/xlink" x="0px" y="0px" viewBox="0 0 300 300"
	 style="enable-background:new 0 0 300 300;" xml:space="preserve">
<style type="text/css">
	.st0{fill:#009543;}
	.st1{fill:#ED4135;}
	.st2{fill:#0035AD;}
	.st3{fill:#FAE600;}
	.st4{fill:none;stroke:#000000;stroke-width:5;}
	.st5{stroke:#000000;stroke-width:6;}
	.st6{display:none;opacity:0.6;fill:#ADADAD;}
</style>
<g id="g10" transform="matrix(1.25,0,0,-1.25,0,308.125)">
	<path class="st0" d="M240,126.5c0-14.4-2.5-28.2-7.2-41.1C216,39.4,171.8,6.5,120,6.5S24,39.4,7.2,85.4C2.5,98.3,0,112.1,0,126.5
		c0,14.4,2.5,28.3,7.2,41.1C24,213.6,68.2,246.5,120,246.5s96-32.9,112.8-78.9C237.5,154.8,240,140.9,240,126.5z"/>
	<path class="st1" d="M240,126.5c0-14.4-2.5-28.2-7.2-41.1H7.2C2.5,98.3,0,112.1,0,126.5c0,14.4,2.5,28.3,7.2,41.1
		C24,213.6,68.2,246.5,120,246.5s96-32.9,112.8-78.9C237.5,154.8,240,140.9,240,126.5z"/>
	<path class="st2" d="M232.8,167.6H7.2C24,213.6,68.2,246.5,120,246.5S216,213.6,232.8,167.6z"/>
	<g id="g24">
		<g>
			<g id="g26">
				<g id="g32" transform="translate(544,204.0571)">
					<path id="path34" inkscape:connector-curvature="0" class="st3" d="M-424,3.2c44.6,0,80.7-36.2,80.7-80.7
						c0-44.6-36.2-80.7-80.7-80.7c-44.6,0-80.7,36.2-80.7,80.7C-504.7-33-468.6,3.2-424,3.2"/>
				</g>
				<g id="g36" transform="translate(544,204.0571)">
					<path id="path38" inkscape:connector-curvature="0" class="st4" d="M-424,3.2c44.6,0,80.7-36.2,80.7-80.7
						c0-44.6-36.2-80.7-80.7-80.7c-44.6,0-80.7,36.2-80.7,80.7C-504.7-33-468.6,3.2-424,3.2z"/>
				</g>
				<g id="g40" transform="translate(544,203.7954)">
					<path id="path42" inkscape:connector-curvature="0" class="st5" d="M-424,3.2v-138 M-437.7-69.1h27.4 M-437.7-89.3h27.4"/>
				</g>
				<g id="g44" transform="translate(511.4902,49.1699)">
					<path id="path46" inkscape:connector-curvature="0" d="M-424,3.2c33-13.5,63.8-0.8,63.8-0.8s-11.7,12.6-17.6,17.5
						c-5.8,4.8-23,4.6-28.8,0C-411.5,16.1-425.5,1.9-424,3.2"/>
				</g>
				<g id="g48" transform="translate(544,99.2217)">
					<path id="path50" inkscape:connector-curvature="0" d="M-424,3.2c5,0,9-5.9,9-13.1c0-7.3-4-13.1-9-13.1s-9,5.9-9,13.1
						C-433-2.7-429,3.2-424,3.2"/>
				</g>
				<g id="g52" transform="translate(544,128.3281)">
					<path id="path54" inkscape:connector-curvature="0" d="M-424,3.2c6,0,11-3.1,11-6.9c0-3.8-4.9-6.9-11-6.9c-6,0-11,3.1-11,6.9
						C-435,0.1-430,3.2-424,3.2"/>
				</g>
				<g id="g56" transform="translate(544,164.3755)">
					<path id="path58" inkscape:connector-curvature="0" d="M-424,3.2c6,0,11-4.9,11-11c0-6-4.9-10.9-11-10.9c-6,0-11,4.9-11,10.9
						C-435-1.7-430,3.2-424,3.2"/>
				</g>
				<g id="g60" transform="translate(557.1406,194.2139)">
					<path id="path62" inkscape:connector-curvature="0" d="M-424,3.2c0,0,0.9-1.6-1-5.2c-9.5-17.2-19.1-17.6-20.9-19
						c-2-1.6-2.8-1.5-2.8-1.5c0.1,1.5,0.3,7.5,0.4,8.1c1.4,8,13.6,7.9,23.1,16.1C-423.9,3-424,3.2-424,3.2L-424,3.2z"/>
				</g>
				<g id="g64" transform="translate(525.1113,157.2573)">
					<path id="path66" inkscape:connector-curvature="0" d="M-424,3.2c0,0,2.1-6.1,2.5-12.3c0.5-9.9,10-10.1,16.4-10.1v5.5
						c-4.9,0-9.1,0.7-12.6,7.9C-419.4-2.3-424,3.2-424,3.2"/>
				</g>
				<g id="g68" transform="translate(524.8379,77.8691)">
					<path id="path70" inkscape:connector-curvature="0" d="M-424,3.2c0,0,3.4,4.3,7.5,14.2c2.1,5.2,7.1,8.2,11.7,8.2v7.7
						c-10.4,0-15.4-3.9-15.9-9.5C-421.9,12.2-424,3.2-424,3.2"/>
				</g>
				<g id="g72" transform="translate(562.8887,157.2573)">
					<path id="path74" inkscape:connector-curvature="0" d="M-424,3.2c0,0-2.1-6.1-2.5-12.3c-0.5-9.9-10-10.1-16.4-10.1v5.5
						c4.9,0,9.1,0.7,12.6,7.9C-428.6-2.3-424,3.2-424,3.2"/>
				</g>
				<g id="g76" transform="translate(563.1621,77.8691)">
					<path id="path78" inkscape:connector-curvature="0" d="M-424,3.2c0,0-3.4,4.3-7.5,14.2c-2.1,5.2-7.1,8.2-11.7,8.2v7.7
						c10.4,0,15.4-3.9,15.9-9.5C-426.1,12.2-424,3.2-424,3.2"/>
				</g>
			</g>
		</g>
	</g>
</g>
<path class="st6" d="M300,150c0,18-3.2,35.3-9,51.3c-21,57.6-76.2,98.7-141,98.7S30,258.9,9,201.3c-5.8-16-9-33.3-9-51.3
	c0-18,3.2-35.3,9-51.3C30,41.1,85.2,0,150,0s120,41.1,141,98.7C296.8,114.7,300,132,300,150z"/>
</svg>
