<svg width="18" height="21" viewBox="0 0 18 21" fill="none" xmlns="http://www.w3.org/2000/svg">
<path fill-rule="evenodd" clip-rule="evenodd" d="M16 6H12V0H6V6H2L9 13L16 6Z" fill="#ddd"/>
<path fill-rule="evenodd" clip-rule="evenodd" d="M3.5 19C4.35 19 5 18.35 5 17.5V16.5C5 15.65 4.35 15 3.5 15H0V21H1.5V19H3.5ZM3.5 16.5H1.5V17.5H3.5V16.5Z" fill="#ddd"/>
<path d="M13 15H17.5V16.5H14.5V17.5H16.6V19H14.5V21H13V15Z" fill="#ddd"/>
<path fill-rule="evenodd" clip-rule="evenodd" d="M6.5 15H10C10.8 15 11.5 15.7 11.5 16.5V19.5C11.5 20.3 10.8 21 10 21H6.5V15ZM8 19.5H10V16.5H8V19.5Z" fill="#ddd"/>
</svg>
