<?xml version="1.0" encoding="UTF-8"?>
<svg width="320px" height="64px" viewBox="0 0 320 64" version="1.1" xmlns="http://www.w3.org/2000/svg" xmlns:xlink="http://www.w3.org/1999/xlink">
    <!-- Generator: Sketch 53.2 (72643) - https://sketchapp.com -->
    <title>upgrade_background</title>
    <desc>Created with Sketch.</desc>
    <g id="Symbols" stroke="none" stroke-width="1" fill="none" fill-rule="evenodd" fill-opacity="0.2">
        <g id="Rectangle-Copy-28" fill="#FFFFFF">
            <g id="Group" transform="translate(-0.000000, 0.000000)">
                <path d="M321,9.59291868 L321,22.4070813 C318.451865,24.9055921 315.582959,26 311,26 C304.3811,26 301.33743,23.7172469 297.671799,18.2188008 C295.33743,14.7172469 294.3811,14 291,14 C287.6189,14 286.66257,14.7172469 284.328201,18.2188008 C280.66257,23.7172469 277.6189,26 271,26 C268.790861,26 267,24.209139 267,22 C267,19.790861 268.790861,18 271,18 C274.3811,18 275.33743,17.2827531 277.671799,13.7811992 C281.33743,8.28275311 284.3811,6 291,6 C297.6189,6 300.66257,8.28275311 304.328201,13.7811992 C306.66257,17.2827531 307.6189,18 311,18 C314.3811,18 315.33743,17.2827531 317.671799,13.7811992 C318.799329,12.0899042 319.868012,10.7028612 321,9.59291868 L321,9.59291868 Z M1.27298172e-12,55.051208 L1.27298172e-12,44.7629616 C1.88153182,47.4208824 2.96186473,48 6,48 C9.38110037,48 10.3374296,47.2827531 12.6717988,43.7811992 C16.3374296,38.2827531 19.3811004,36 26,36 C32.6188996,36 35.6625704,38.2827531 39.3282012,43.7811992 C41.6625704,47.2827531 42.6188996,48 46,48 C49.3811004,48 50.3374296,47.2827531 52.6717988,43.7811992 C56.3374296,38.2827531 59.3811004,36 66,36 C72.6188996,36 75.6625704,38.2827531 79.3282012,43.7811992 C81.6625704,47.2827531 82.6188996,48 86,48 C88.209139,48 90,49.790861 90,52 C90,54.209139 88.209139,56 86,56 C79.3811004,56 76.3374296,53.7172469 72.6717988,48.2188008 C70.3374296,44.7172469 69.3811004,44 66,44 C62.6188996,44 61.6625704,44.7172469 59.3282012,48.2188008 C55.6625704,53.7172469 52.6188996,56 46,56 C39.3811004,56 36.3374296,53.7172469 32.6717988,48.2188008 C30.3374296,44.7172469 29.3811004,44 26,44 C22.6188996,44 21.6625704,44.7172469 19.3282012,48.2188008 C15.6625704,53.7172469 12.6188996,56 6,56 C3.59513551,56 1.66224002,55.6986518 -1.22213351e-12,55.051208 L1.27298172e-12,55.051208 Z" id="Shape"></path>
            </g>
        </g>
    </g>
</svg>