<svg width="18px" height="18px" viewBox="0 0 18 18" version="1.1" xmlns="http://www.w3.org/2000/svg">
    <g id="Page-1" stroke="none" stroke-width="1" fill="none" fill-rule="evenodd">
        <g id="advanged-mistakes" transform="translate(-69.000000, -59.000000)" fill="#F5A623" fill-rule="nonzero">
            <path d="M78,77 C73.029437,77 69,72.9705627 69,68 C69,63.0294373 73.029437,59 78,59 C82.970563,59 87,63.0294373 87,68 C87,72.9705627 82.970563,77 78,77 Z M79,65.4142136 L80.292893,66.7071068 C80.683418,67.0976311 81.316582,67.0976311 81.707107,66.7071068 C82.097631,66.3165825 82.097631,65.6834175 81.707107,65.2928932 L78.848528,62.4343146 C78.379899,61.9656854 77.620101,61.9656854 77.151472,62.4343146 L74.292893,65.2928932 C73.902369,65.6834175 73.902369,66.3165825 74.292893,66.7071068 C74.683418,67.0976311 75.316582,67.0976311 75.707107,66.7071068 L77,65.4142136 L77,73 C77,73.5522847 77.447715,74 78,74 C78.552285,74 79,73.5522847 79,73 L79,65.4142136 Z" id="Shape"></path>
        </g>
    </g>
</svg>