<?xml version="1.0" encoding="UTF-8"?>
<svg width="320px" height="140px" viewBox="0 0 320 140" version="1.1" xmlns="http://www.w3.org/2000/svg" xmlns:xlink="http://www.w3.org/1999/xlink">
    <!-- Generator: Sketch 52.4 (67378) - http://www.bohemiancoding.com/sketch -->
    <title>UpgradeBackground</title>
    <desc>Created with Sketch.</desc>
    <defs>
        <rect id="path-1" x="0" y="0" width="320" height="140"></rect>
    </defs>
    <g id="UI" stroke="none" stroke-width="1" fill="none" fill-rule="evenodd">
        <g id="Line-Copy">
            <g id="Group-2">
                <mask id="mask-2" fill="white">
                    <use xlink:href="#path-1"></use>
                </mask>
                <use id="Rectangle" xlink:href="#path-1"></use>
                <path d="M227,19 C223.69055,19 222.168715,17.8586234 220.335899,15.1094004 C219.168715,13.3586234 218.69055,13 217,13 C215.30945,13 214.831285,13.3586234 213.664101,15.1094004 C211.831285,17.8586234 210.30945,19 207,19 C203.69055,19 202.168715,17.8586234 200.335899,15.1094004 C199.168715,13.3586234 198.69055,13 197,13 C195.30945,13 194.831285,13.3586234 193.664101,15.1094004 C191.831285,17.8586234 190.30945,19 187,19 C183.69055,19 182.168715,17.8586234 180.335899,15.1094004 C179.168715,13.3586234 178.69055,13 177,13 C175.30945,13 174.831285,13.3586234 173.664101,15.1094004 C171.831285,17.8586234 170.30945,19 167,19 C163.69055,19 162.168715,17.8586234 160.335899,15.1094004 C159.168715,13.3586234 158.69055,13 157,13 C155.30945,13 154.831285,13.3586234 153.664101,15.1094004 C151.831285,17.8586234 150.30945,19 147,19 C145.895431,19 145,18.1045695 145,17 C145,15.8954305 145.895431,15 147,15 C148.69055,15 149.168715,14.6413766 150.335899,12.8905996 C152.168715,10.1413766 153.69055,9 157,9 C160.30945,9 161.831285,10.1413766 163.664101,12.8905996 C164.831285,14.6413766 165.30945,15 167,15 C168.69055,15 169.168715,14.6413766 170.335899,12.8905996 C172.168715,10.1413766 173.69055,9 177,9 C180.30945,9 181.831285,10.1413766 183.664101,12.8905996 C184.831285,14.6413766 185.30945,15 187,15 C188.69055,15 189.168715,14.6413766 190.335899,12.8905996 C192.168715,10.1413766 193.69055,9 197,9 C200.30945,9 201.831285,10.1413766 203.664101,12.8905996 C204.831285,14.6413766 205.30945,15 207,15 C208.69055,15 209.168715,14.6413766 210.335899,12.8905996 C212.168715,10.1413766 213.69055,9 217,9 C220.30945,9 221.831285,10.1413766 223.664101,12.8905996 C224.831285,14.6413766 225.30945,15 227,15 C228.104569,15 229,15.8954305 229,17 C229,18.1045695 228.104569,19 227,19 Z M70,136 C63.3811004,136 60.3374296,133.717247 56.6717988,128.218801 C54.3374296,124.717247 53.3811004,124 50,124 C46.6188996,124 45.6625704,124.717247 43.3282012,128.218801 C39.6625704,133.717247 36.6188996,136 30,136 C23.3811004,136 20.3374296,133.717247 16.6717988,128.218801 C14.3374296,124.717247 13.3811004,124 10,124 C6.61889963,124 5.66257044,124.717247 3.32820118,128.218801 C-0.337429561,133.717247 -3.38110037,136 -10,136 C-16.6188996,136 -19.6625704,133.717247 -23.3282012,128.218801 C-25.6625704,124.717247 -26.6188996,124 -30,124 C-33.3811004,124 -34.3374296,124.717247 -36.6717988,128.218801 C-40.3374296,133.717247 -43.3811004,136 -50,136 C-56.6188996,136 -59.6625704,133.717247 -63.3282012,128.218801 C-65.6625704,124.717247 -66.6188996,124 -70,124 C-73.3811004,124 -74.3374296,124.717247 -76.6717988,128.218801 C-80.3374296,133.717247 -83.3811004,136 -90,136 C-92.209139,136 -94,134.209139 -94,132 C-94,129.790861 -92.209139,128 -90,128 C-86.6188996,128 -85.6625704,127.282753 -83.3282012,123.781199 C-79.6625704,118.282753 -76.6188996,116 -70,116 C-63.3811004,116 -60.3374296,118.282753 -56.6717988,123.781199 C-54.3374296,127.282753 -53.3811004,128 -50,128 C-46.6188996,128 -45.6625704,127.282753 -43.3282012,123.781199 C-39.6625704,118.282753 -36.6188996,116 -30,116 C-23.3811004,116 -20.3374296,118.282753 -16.6717988,123.781199 C-14.3374296,127.282753 -13.3811004,128 -10,128 C-6.61889963,128 -5.66257044,127.282753 -3.32820118,123.781199 C0.337429561,118.282753 3.38110037,116 10,116 C16.6188996,116 19.6625704,118.282753 23.3282012,123.781199 C25.6625704,127.282753 26.6188996,128 30,128 C33.3811004,128 34.3374296,127.282753 36.6717988,123.781199 C40.3374296,118.282753 43.3811004,116 50,116 C56.6188996,116 59.6625704,118.282753 63.3282012,123.781199 C65.6625704,127.282753 66.6188996,128 70,128 C72.209139,128 74,129.790861 74,132 C74,134.209139 72.209139,136 70,136 Z M415,106 C408.3811,106 405.33743,103.717247 401.671799,98.2188008 C399.33743,94.7172469 398.3811,94 395,94 C391.6189,94 390.66257,94.7172469 388.328201,98.2188008 C384.66257,103.717247 381.6189,106 375,106 C368.3811,106 365.33743,103.717247 361.671799,98.2188008 C359.33743,94.7172469 358.3811,94 355,94 C351.6189,94 350.66257,94.7172469 348.328201,98.2188008 C344.66257,103.717247 341.6189,106 335,106 C328.3811,106 325.33743,103.717247 321.671799,98.2188008 C319.33743,94.7172469 318.3811,94 315,94 C311.6189,94 310.66257,94.7172469 308.328201,98.2188008 C304.66257,103.717247 301.6189,106 295,106 C288.3811,106 285.33743,103.717247 281.671799,98.2188008 C279.33743,94.7172469 278.3811,94 275,94 C271.6189,94 270.66257,94.7172469 268.328201,98.2188008 C264.66257,103.717247 261.6189,106 255,106 C252.790861,106 251,104.209139 251,102 C251,99.790861 252.790861,98 255,98 C258.3811,98 259.33743,97.2827531 261.671799,93.7811992 C265.33743,88.2827531 268.3811,86 275,86 C281.6189,86 284.66257,88.2827531 288.328201,93.7811992 C290.66257,97.2827531 291.6189,98 295,98 C298.3811,98 299.33743,97.2827531 301.671799,93.7811992 C305.33743,88.2827531 308.3811,86 315,86 C321.6189,86 324.66257,88.2827531 328.328201,93.7811992 C330.66257,97.2827531 331.6189,98 335,98 C338.3811,98 339.33743,97.2827531 341.671799,93.7811992 C345.33743,88.2827531 348.3811,86 355,86 C361.6189,86 364.66257,88.2827531 368.328201,93.7811992 C370.66257,97.2827531 371.6189,98 375,98 C378.3811,98 379.33743,97.2827531 381.671799,93.7811992 C385.33743,88.2827531 388.3811,86 395,86 C401.6189,86 404.66257,88.2827531 408.328201,93.7811992 C410.66257,97.2827531 411.6189,98 415,98 C417.209139,98 419,99.790861 419,102 C419,104.209139 417.209139,106 415,106 Z M345,41 C341.69055,41 340.168715,39.8586234 338.335899,37.1094004 C337.168715,35.3586234 336.69055,35 335,35 C333.30945,35 332.831285,35.3586234 331.664101,37.1094004 C329.831285,39.8586234 328.30945,41 325,41 C321.69055,41 320.168715,39.8586234 318.335899,37.1094004 C317.168715,35.3586234 316.69055,35 315,35 C313.30945,35 312.831285,35.3586234 311.664101,37.1094004 C309.831285,39.8586234 308.30945,41 305,41 C301.69055,41 300.168715,39.8586234 298.335899,37.1094004 C297.168715,35.3586234 296.69055,35 295,35 C293.30945,35 292.831285,35.3586234 291.664101,37.1094004 C289.831285,39.8586234 288.30945,41 285,41 C281.69055,41 280.168715,39.8586234 278.335899,37.1094004 C277.168715,35.3586234 276.69055,35 275,35 C273.30945,35 272.831285,35.3586234 271.664101,37.1094004 C269.831285,39.8586234 268.30945,41 265,41 C263.895431,41 263,40.1045695 263,39 C263,37.8954305 263.895431,37 265,37 C266.69055,37 267.168715,36.6413766 268.335899,34.8905996 C270.168715,32.1413766 271.69055,31 275,31 C278.30945,31 279.831285,32.1413766 281.664101,34.8905996 C282.831285,36.6413766 283.30945,37 285,37 C286.69055,37 287.168715,36.6413766 288.335899,34.8905996 C290.168715,32.1413766 291.69055,31 295,31 C298.30945,31 299.831285,32.1413766 301.664101,34.8905996 C302.831285,36.6413766 303.30945,37 305,37 C306.69055,37 307.168715,36.6413766 308.335899,34.8905996 C310.168715,32.1413766 311.69055,31 315,31 C318.30945,31 319.831285,32.1413766 321.664101,34.8905996 C322.831285,36.6413766 323.30945,37 325,37 C326.69055,37 327.168715,36.6413766 328.335899,34.8905996 C330.168715,32.1413766 331.69055,31 335,31 C338.30945,31 339.831285,32.1413766 341.664101,34.8905996 C342.831285,36.6413766 343.30945,37 345,37 C346.104569,37 347,37.8954305 347,39 C347,40.1045695 346.104569,41 345,41 Z" id="Shape" fill="#FFFFFF" fill-rule="nonzero" opacity="0.2" mask="url(#mask-2)"></path>
            </g>
        </g>
    </g>
</svg>