<svg id="wave" width="40px" height="5px" viewBox="0 0 40 5" version="1.1" xmlns="http://www.w3.org/2000/svg">
    <g id="Symbols" stroke="none" stroke-width="1" fill="none" fill-rule="evenodd">
        <g id="Wave/White" fill="#FFFFFF" fill-rule="nonzero">
            <path d="M40,3 L40,5 C38.3452751,5 37.5843574,4.42931172 36.6679497,3.0547002 C36.0843574,2.17931172 35.8452751,2 35,2 C34.1547249,2 33.9156426,2.17931172 33.3320503,3.0547002 C32.4156426,4.42931172 31.6547249,5 30,5 C28.3452751,5 27.5843574,4.42931172 26.6679497,3.0547002 C26.0843574,2.17931172 25.8452751,2 25,2 C24.1547249,2 23.9156426,2.17931172 23.3320503,3.0547002 C22.4156426,4.42931172 21.6547249,5 20,5 C18.3452751,5 17.5843574,4.42931172 16.6679497,3.0547002 C16.0843574,2.17931172 15.8452751,2 15,2 C14.1547249,2 13.9156426,2.17931172 13.3320503,3.0547002 C12.4156426,4.42931172 11.6547249,5 10,5 C8.34527509,5 7.58435739,4.42931172 6.66794971,3.0547002 C6.08435739,2.17931172 5.84527509,2 5,2 C4.15472491,2 3.91564261,2.17931172 3.33205029,3.0547002 C2.41564261,4.42931172 1.65472491,5 0,5 L0,3 C0.845275093,3 1.08435739,2.82068828 1.66794971,1.9452998 C2.58435739,0.570688277 3.34527509,0 5,0 C6.65472491,0 7.41564261,0.570688277 8.33205029,1.9452998 C8.91564261,2.82068828 9.15472491,3 10,3 C10.8452751,3 11.0843574,2.82068828 11.6679497,1.9452998 C12.5843574,0.570688277 13.3452751,0 15,0 C16.6547249,0 17.4156426,0.570688277 18.3320503,1.9452998 C18.9156426,2.82068828 19.1547249,3 20,3 C20.8452751,3 21.0843574,2.82068828 21.6679497,1.9452998 C22.5843574,0.570688277 23.3452751,0 25,0 C26.6547249,0 27.4156426,0.570688277 28.3320503,1.9452998 C28.9156426,2.82068828 29.1547249,3 30,3 C30.8452751,3 31.0843574,2.82068828 31.6679497,1.9452998 C32.5843574,0.570688277 33.3452751,0 35,0 C36.6547249,0 37.4156426,0.570688277 38.3320503,1.9452998 C38.9156426,2.82068828 39.1547249,3 40,3 Z" id="Combined-Shape"></path>
        </g>
    </g>
</svg>