<svg width="96" height="96" viewBox="0 0 96 96" fill="none" xmlns="http://www.w3.org/2000/svg">
<circle cx="48" cy="48" r="48" fill="white"/>
<mask id="mask0" mask-type="alpha" maskUnits="userSpaceOnUse" x="0" y="0" width="96" height="96">
<circle cx="48" cy="48" r="48" fill="#C4C4C4"/>
</mask>
<g mask="url(#mask0)">
<g clip-path="url(#clip0)">
<path d="M55.6343 67.4078L67.1238 49.0599C68.3572 47.0911 70.8613 46.3448 72.9707 47.3175C75.3957 48.4359 76.3691 51.3722 75.0925 53.7181L63.5869 74.8521L55.6343 67.4078Z" fill="#FFCBBE"/>
<path d="M16.1436 71.71L24.6375 60.9449C26.6113 58.4429 29.1594 56.4544 32.0649 55.1463L42.8235 50.3057C46.0139 48.8695 49.6943 50.8741 50.2195 54.3333C50.2195 54.3333 50.6472 57.0513 48.5884 59.0018L41.0159 66.0279L58.3552 66.0682C60.0896 66.0718 61.761 65.4185 63.0325 64.2401L74.3652 53.7379C76.3201 51.9259 79.323 51.8695 81.3452 53.6053C81.3452 53.6053 85.0147 56.8653 81.9546 60.9464L69.8967 75.3831C67.0593 78.7801 63.3123 81.2989 59.0957 82.6444L28.4072 92.4361L16.1436 71.71Z" fill="#FFDDCF"/>
<path d="M16.1436 71.7101L28.4072 92.4362L43.6292 87.5795C37.761 83.8214 30.4148 81.1188 26.853 77.2428C21.0361 70.9125 24.6375 60.9449 24.6375 60.9449L16.1436 71.7101Z" fill="#FFCBBE"/>
<path d="M16.1435 71.7101L29.5923 93.088C31.4241 96.0001 30.5452 99.8453 27.6308 101.673L22.8869 104.649C19.9521 106.488 16.0798 105.578 14.2722 102.623L4.37206 86.4362C2.58129 83.5087 3.47704 79.6847 6.38109 77.8566L16.1435 71.7101Z" fill="#60C6FF"/>
<path d="M23.9841 96.5502C23.9841 98.2816 22.5808 99.6857 20.8494 99.6857C19.1179 99.6857 17.7146 98.2816 17.7146 96.5502C17.7146 94.8187 19.1179 93.4154 20.8494 93.4154C22.5808 93.4154 23.9841 94.8187 23.9841 96.5502Z" fill="#F9EE80"/>
<path d="M50.563 11.4266L52.9888 16.3427L58.4145 17.1307C61.1018 17.5211 62.1748 20.8236 60.2302 22.7198L56.3044 26.546L57.2309 31.9491C57.6902 34.6261 54.8806 36.6674 52.4768 35.4032L47.6245 32.8522L42.7722 35.4032C40.3684 36.6666 37.5588 34.6254 38.018 31.9491L38.9446 26.546L35.0195 22.7198C33.0749 20.8236 34.1479 17.5211 36.8352 17.1307L42.2602 16.3427L44.686 11.4266C45.8887 8.99133 49.3611 8.99133 50.563 11.4266Z" fill="#FF9811"/>
<path d="M28.9177 39.118C27.5335 40.5023 25.2893 40.5023 23.905 39.118L18.7839 33.9962C17.3997 32.6127 17.3997 30.3685 18.7839 28.9843C20.1675 27.6007 22.4116 27.6007 23.7959 28.9843L28.9177 34.1061C30.302 35.4904 30.302 37.7345 28.9177 39.118Z" fill="#60C6FF"/>
<path d="M66.332 39.118C67.7156 40.5023 69.9597 40.5023 71.344 39.118L76.4658 33.9962C77.8501 32.6127 77.8501 30.3685 76.4658 28.9843C75.0815 27.6007 72.8374 27.6007 71.4539 28.9843L66.332 34.1061C64.9478 35.4904 64.9478 37.7345 66.332 39.118Z" fill="#60C6FF"/>
<path d="M44.686 11.4267L42.2602 16.3427L36.8352 17.1308C34.1479 17.5211 33.0749 20.8236 35.0195 22.7199L38.9446 26.5461L38.018 31.9491C37.5588 34.6254 40.3684 36.6674 42.7722 35.4032C42.2895 26.8559 47.2744 26.713 46.5281 21.6388C45.6726 15.8219 50.563 11.4259 50.563 11.4259C49.3611 8.99136 45.8887 8.99136 44.686 11.4267Z" fill="#FF9811"/>
</g>
</g>
<defs>
<clipPath id="clip0">
<rect x="-4.80005" y="9.59998" width="96" height="96" fill="white"/>
</clipPath>
</defs>
</svg>
