<svg width="18" height="18" viewBox="0 0 18 18" fill="none" xmlns="http://www.w3.org/2000/svg">
<path d="M17.6263 2.25376C18.0168 1.86324 18.0168 1.23007 17.6263 0.83955L17.1605 0.373763C16.77 -0.016761 16.1368 -0.016761 15.7463 0.373763L9.00008 7.11999L2.25385 0.373763C1.86333 -0.0167617 1.23017 -0.0167611 0.839641 0.373763L0.373855 0.83955C-0.0166695 1.23007 -0.0166695 1.86324 0.373855 2.25376L7.12008 8.99999L0.373854 15.7462C-0.0166702 16.1367 -0.0166695 16.7699 0.373855 17.1604L0.839641 17.6262C1.23017 18.0167 1.86333 18.0167 2.25385 17.6262L9.00008 10.88L15.7463 17.6262C16.1368 18.0167 16.77 18.0167 17.1605 17.6262L17.6263 17.1604C18.0168 16.7699 18.0168 16.1367 17.6263 15.7462L10.8801 8.99999L17.6263 2.25376Z" fill="#3D4855"/>
</svg>
