<svg width="48" height="48" viewBox="0 0 48 48" fill="none" xmlns="http://www.w3.org/2000/svg">
<circle cx="24" cy="24" r="24" fill="white"/>
<mask id="mask0" mask-type="alpha" maskUnits="userSpaceOnUse" x="0" y="0" width="48" height="48">
<circle cx="24" cy="24" r="24" fill="#C4C4C4"/>
</mask>
<g mask="url(#mask0)">
<path d="M9.22059 12.2662H7.01825C6.38286 12.2662 5.86786 12.7812 5.86786 13.4165V44.8002C5.86786 45.3158 6.28591 45.7338 6.80145 45.7338H9.43739C9.95301 45.7338 10.371 45.3158 10.371 44.8002V13.4165C10.371 12.7812 9.8559 12.2662 9.22059 12.2662Z" fill="#D4D2D3"/>
<path d="M38.7795 12.2662H40.9819C41.6173 12.2662 42.1323 12.7812 42.1323 13.4165V44.8002C42.1323 45.3158 41.7142 45.7338 41.1987 45.7338H38.5627C38.0471 45.7338 37.6292 45.3158 37.6292 44.8002V13.4165C37.6292 12.7812 38.1442 12.2662 38.7795 12.2662Z" fill="#D4D2D3"/>
<path d="M9.81445 15.1693L6.01609 16.9167L4 20.9839V27.2581L11.9302 22.3871L16.0887 15.1693H9.81445Z" fill="#465059"/>
<path d="M21.871 15.1693L11.9302 22.3871L7.43549 29.6049H13.7097L22.7903 23.7446L28.1452 15.1693H21.871Z" fill="#465059"/>
<path d="M33.9274 15.1693L22.7903 23.7446L19.4919 29.6049H25.7661L34.8831 23.4274L40.2016 15.1693H33.9274Z" fill="#465059"/>
<path d="M33.9274 24.7124L31.5485 29.6049H37.8226L42.3065 27.2581L44 23.4274V17.1532L33.9274 24.7124Z" fill="#465059"/>
<path d="M44.0001 23.4275V27.7372C44.0001 28.7686 43.1637 29.6049 42.1323 29.6049H37.8226L44.0001 23.4275Z" fill="#FFCD38"/>
<path d="M44.0001 17.0371V17.1533L31.5485 29.6049H25.7662L40.2017 15.1693H42.1323C43.1637 15.1693 44.0001 16.0056 44.0001 17.0371Z" fill="#FFCD38"/>
<path d="M33.9275 15.1693L19.4919 29.6049H13.7097L28.1452 15.1693H33.9275Z" fill="#FFCD38"/>
<path d="M21.871 15.1693L7.43547 29.6049H5.86773C4.83633 29.6049 4 28.7685 4 27.737V27.258L16.0887 15.1693H21.871Z" fill="#FFCD38"/>
<path d="M9.81445 15.1693L4 20.9839V17.0371C4 16.0056 4.83633 15.1694 5.86773 15.1694H9.81445V15.1693Z" fill="#FFCD38"/>
<path d="M10.3713 29.6045H5.86804V32.0342H10.3713V29.6045Z" fill="#BAB8B9"/>
<path d="M42.1323 29.6045H37.629V32.0342H42.1323V29.6045Z" fill="#BAB8B9"/>
</g>
</svg>
