<svg width="32" height="32" viewBox="0 0 32 32" fill="none" xmlns="http://www.w3.org/2000/svg">
<circle cx="16" cy="16" r="16" fill="#F96380"/>
<path d="M18.5125 10.9999C19.4801 10.3681 20.6416 10 21.8906 10C25.2647 10 28 12.6863 28 16C28 19.3137 25.2647 22 21.8906 22C20.6416 22 19.4801 21.6319 18.5125 21.0001C18.1048 20.7226 17.1317 19.8988 16.5 18.8235L13.9723 14.5206C13.8524 14.3349 13.5798 13.932 13.4485 13.8062C12.8903 13.2324 12.1155 12.8636 11.253 12.8266C11.2053 12.8246 11.1575 12.8235 11.1094 12.8235C9.32308 12.8235 7.875 14.2457 7.875 16C7.875 17.7543 9.32308 19.1765 11.1094 19.1765C11.1615 19.1765 11.2134 19.1753 11.2649 19.1729C11.6661 19.1542 12.048 19.0638 12.3979 18.9144C12.8155 18.6623 13.72 18.0128 13.9972 17.432L15.4132 19.657L15.6445 20.0204C15.3913 20.3111 14.7677 20.7946 14.4875 21.0001C13.5199 21.6319 12.3584 22 11.1094 22C7.73526 22 5 19.3137 5 16C5 12.6863 7.73526 10 11.1094 10C12.3584 10 13.5199 10.3681 14.4875 10.9999C14.6666 11.1168 14.839 11.2428 15.0041 11.3771C15.5324 11.7729 16.2215 12.7416 16.5 13.1765L19.0277 17.4794C19.1953 17.7647 19.5515 18.1938 19.5515 18.1938C20.0973 18.755 20.8504 19.12 21.69 19.1705C21.7564 19.1745 21.8233 19.1765 21.8906 19.1765C23.6769 19.1765 25.125 17.7543 25.125 16C25.125 14.2457 23.6769 12.8235 21.8906 12.8235C21.8186 12.8235 21.747 12.8258 21.6761 12.8304C21.2965 12.8548 20.9348 12.9435 20.6021 13.0856C19.715 13.4364 19.1663 14.2201 19.0028 14.568L17.3555 11.9796C17.4771 11.8264 17.8787 11.416 18.5125 10.9999Z" fill="white"/>
</svg>
