<svg width="48" height="48" viewBox="0 0 48 48" fill="none" xmlns="http://www.w3.org/2000/svg">
<circle cx="24" cy="24" r="24" fill="white"/>
<mask id="mask0" mask-type="alpha" maskUnits="userSpaceOnUse" x="0" y="0" width="48" height="48">
<circle cx="24" cy="24" r="24" fill="#C4C4C4"/>
</mask>
<g mask="url(#mask0)">
<path d="M14.0166 16.3564L7.81312 22.9116L5.81235 30.8498L9.32021 32.8356L14.9065 27.495L17.524 18.3418L14.0166 16.3564Z" fill="#E5E8EC"/>
<path d="M41.4098 30.0989L40.846 21.292L35.8862 14.3875L32.0836 15.7242V23.1869L36.7191 28.9095L37.6072 31.4357L41.4098 30.0989Z" fill="#E5E8EC"/>
<path d="M32.0836 15.7242L26.2181 15.073L23.4448 17.4532V21.693L28.6247 36.5861C28.6247 36.5861 36.5074 33.1969 36.8458 29.0657L32.0836 15.7242Z" fill="#FFC395"/>
<path d="M23.4443 21.6931L31.9407 26.5024C32.9413 27.0689 33.2933 28.3391 32.7269 29.3397C32.1604 30.3403 30.8902 30.6919 29.8896 30.1259C30.8902 30.6919 31.2423 31.9621 30.6758 32.9627C30.1093 33.9633 28.8391 34.3154 27.839 33.7489C28.8396 34.3154 29.1912 35.5855 28.6252 36.5861C28.0587 37.5868 26.7885 37.9388 25.7879 37.3723C26.7885 37.9388 27.1406 39.209 26.5741 40.2096C26.0076 41.2102 24.7374 41.5618 23.7368 40.9958L9.32022 32.8352L17.5241 18.3418L19.8209 19.642L23.4443 21.6931Z" fill="#FFD2B0"/>
<path d="M11.0289 31.2018L6.38633 28.5737L5.81235 30.8498L8.54902 32.3988L9.32021 32.8355L11.0289 31.2018Z" fill="#DADADC"/>
<path d="M14.0157 16.3564L5.8119 30.8507L-4.91418 24.78L3.28965 10.2857L14.0157 16.3564Z" fill="#6EE6DB"/>
<path d="M40.5227 28.0333L36.8634 29.3198L37.6073 31.4358L41.4099 30.099L41.2608 27.7708L40.5227 28.0333Z" fill="#DADADC"/>
<path d="M52.9142 26.0113L47.5127 10.2994L35.8862 14.387L41.4098 30.0989L52.9142 26.0113Z" fill="#FF7EBF"/>
<path d="M52.9142 26.0114L52.1849 23.8897L40.6655 27.9826L41.4098 30.099L52.9142 26.0114Z" fill="#FF6397"/>
<path d="M5.81279 30.8489L-4.9133 24.7778L-3.79798 22.8079L6.92766 28.879L5.81279 30.8489Z" fill="#26BED3"/>
<path d="M26.2181 15.0731C24.0046 14.8273 21.8609 15.9387 20.7866 17.8891L17.5955 23.6819C17.0405 24.6887 17.4071 25.9549 18.4144 26.5095C19.4212 27.0645 20.6874 26.6979 21.2424 25.6906L23.4443 21.693L26.2181 15.0731Z" fill="#FFC395"/>
<path d="M26.5741 40.2096C26.5997 40.1641 26.6213 40.1173 26.6433 40.071C26.6469 40.0626 26.6517 40.0551 26.6552 40.0468L10.4351 30.8657L9.32022 32.8356L13.4585 35.1778L23.7368 40.9957C24.1118 41.208 24.5252 41.2913 24.9249 41.26C24.9915 41.2547 25.0577 41.2459 25.123 41.2344C25.7142 41.1299 26.2555 40.7725 26.5741 40.2096Z" fill="#FFC395"/>
</g>
</svg>
