<svg xmlns="http://www.w3.org/2000/svg" width="153.47" height="25.61" viewBox="0 0 153.47 25.61" class="default-logo svg replaced-svg">
    <defs>
        <style>
        .color-white {
            font-size: 28px;
            font-family: Dosis;
            font-weight: 700;
        }

        .color-white,
        .color-white-2 {
            fill: #fff;
        }

        .color-white-2 {
            fill-rule: evenodd;
        }
        </style>
    </defs>
    <title>last</title>
    <g>
        <path class="color-white-2" d="M45.91,4.88c-2.78,0-6.63,1.72-11.78,5.26-1.84,1.26-3.48,2.52-4.66,3.45l-4.37,3.52h0l-.18.14h0c-1,.75-2.14,1.61-3.4,2.48-5.84,4-8.21,4.33-8.79,4.33a7,7,0,0,1,0-13.93c.58,0,2.94.31,8.76,4.31.85.59,1.67,1.18,2.41,1.73a.55.55,0,0,0,.67,0l3.33-2.7a.55.55,0,0,0,0-.86c-1-.75-2.14-1.6-3.39-2.46-5.14-3.54-9-5.26-11.78-5.26a12.23,12.23,0,0,0,0,24.46c2.78,0,6.63-1.72,11.78-5.26,1.92-1.32,3.63-2.63,4.82-3.57h0l4.21-3.39h0l.12-.09h0c1-.77,2.2-1.66,3.5-2.55,5.82-4,8.17-4.31,8.76-4.31a7,7,0,0,1,0,13.93c-.58,0-2.94-.31-8.76-4.31-.87-.6-1.7-1.2-2.45-1.76A.55.55,0,0,0,34,18l-3.25,2.77a.55.55,0,0,0,0,.86c1,.74,2.12,1.58,3.34,2.43,5.14,3.54,9,5.26,11.78,5.26a12.23,12.23,0,0,0,0-24.46Z" transform="translate(0 -4.38)"></path>
        <g>
            <path class="color-white-2" d="M80.35,27.29a5.2,5.2,0,0,1-4.54,2.21c-4,0-6.25-2.91-6.25-6.48V12.62H74v9.49c0,1.84.94,3.31,3,3.31a3,3,0,0,0,3.11-3.24V12.62h4.44V26.09a27.16,27.16,0,0,0,.17,3H80.48A11.32,11.32,0,0,1,80.35,27.29Z" transform="translate(0 -4.38)"></path>
            <path class="color-white-2" d="M104.68,5.37h4.88l-8.79,23.69H96L87.27,5.37h5L98.5,23Z" transform="translate(0 -4.38)"></path>
            <path class="color-white-2" d="M117.21,20.14v8.92H112.6V5.37h8.86c4.68,0,7.79,3.11,7.79,7.38s-3.11,7.39-7.79,7.39Zm3.68-4c2.31,0,3.71-1.34,3.71-3.38s-1.4-3.41-3.71-3.41h-3.64v6.78Z" transform="translate(0 -4.38)"></path>
            <path class="color-white-2" d="M148.13,29.06,137.37,12.25V29.06h-4.61V5.37h5.75L148.36,21V5.37H153V29.06Z" transform="translate(0 -4.38)"></path>
        </g>
    </g>
</svg>