<svg xmlns="http://www.w3.org/2000/svg" xmlns:xlink="http://www.w3.org/1999/xlink" version="1.1" id="Capa_1" x="0px" y="0px" viewBox="0 235 512 290" xml:space="preserve" width="80px" height="50px" class=""><g transform="matrix(0.998901 0 0 0.998901 0.281459 0.281459)"><g>
    <g>
        <path d="M376,242c-41.4,0-78.3,18.3-102.9,47.701C281.8,303.5,292.301,323,307,348.8c6.319-20.546,33.598-46.8,69-46.8    c41.4,0,76,33.6,76,75c0,38.527-30.396,73.477-75.066,74.899c-33.259,1.058-55.875-19.481-72.935-47.899    c-47.045-73.2-41.622-91.423-72.599-122.401C206.159,256.359,172.846,242,136,242C61.057,242,0,302.183,0,377    c0,74.7,61.3,135,136,135c40.499,0,76.5-17.701,101.1-45.901c-7.079-11.797-1.752-2.924-32.401-59.099    c-11.4,26.4-37.798,45-68.699,45c-41.4,0-76-33.6-76-75c0-41.537,34.631-75,76-75c19.2,0,38.101,7.2,53.101,21.899    c12.733,12.759,58.356,98.69,66.899,114.6v0.3c20.131,40.245,66.969,73.964,120.936,73.092C455.525,510.621,512,448.375,512,377    C512,302.3,450.7,242,376,242z" data-original="#000000" class="active-path" fill="#000000"/>
    </g>
</g><g>

</g></g> </svg>