<svg width="66" height="65" xmlns="http://www.w3.org/2000/svg"><path d="M15.762 64.35H0V25.549h15.762v38.803zM2.78 61.556h10.204v-33.21H2.78v33.21zm48.048 3.221l-.216-.002h-22.24c-6.216 0-10.38-2.058-10.554-2.145l-.768-.387V27.922h1.389c1.546 0 3.025-1.203 4.454-2.365.25-.204.496-.403.74-.596 1.79-1.824 4.438-5.595 5.716-7.417 2.385-3.397 3.595-6.405 3.595-8.939V2.752c0-1.582 1.638-2.645 4.078-2.645 2.419 0 4.806.991 6.384 2.652 1.59 1.675 2.367 3.998 2.245 6.718-.164 3.647-1.346 6.952-2.295 9.609-.544 1.522-1.057 2.96-1.057 3.695 0 1.688 1.409 3.225 2.957 3.225h14.28c1.708 0 3.318.69 4.417 1.892a5.218 5.218 0 0 1 1.379 3.946 12.682 12.682 0 0 1-.819 4.173c-.115.41-.242.846-.378 1.302-.043.35-.025.785.317 1.375 1.986 3.422.71 5.33-.22 6.722-.709 1.06-1.137 1.7-.66 3.132 1.04 3.143-1.254 5.182-2.772 6.531-.478.425-1.193 1.06-1.304 1.355.335 2.27-.12 4.15-1.351 5.594-2.117 2.481-5.822 2.749-7.317 2.749zm-31-4.323c1.37.531 4.478 1.525 8.544 1.525l22.456.002c1.786 0 4.092-.466 5.209-1.774.698-.817.929-1.93.706-3.398-.25-1.633 1.061-2.797 2.217-3.825 1.515-1.346 2.404-2.257 1.975-3.551-.908-2.737.19-4.379.992-5.577.822-1.229 1.234-1.845.127-3.752-.62-1.066-.831-2.147-.65-3.304l.041-.183c.148-.498.287-.973.41-1.415l.036-.105c.174-.474.637-1.732.664-3.345l.005-.092a2.446 2.446 0 0 0-.651-1.87c-.575-.628-1.44-.989-2.372-.989h-14.28c-3.11 0-5.736-2.757-5.736-6.02 0-1.221.539-2.73 1.222-4.641.885-2.48 1.987-5.564 2.133-8.788.088-1.967-.41-3.536-1.479-4.66-1.253-1.319-3.082-1.79-4.375-1.79-.629 0-1.07.107-1.3.2v5.503c0 3.124-1.38 6.673-4.102 10.552-2.14 3.05-4.359 6.11-6.082 7.842l-.13.114c-.252.198-.508.406-.768.618-1.392 1.132-2.934 2.387-4.812 2.825v29.898z" fill="#46c3ff" fill-rule="evenodd"/></svg>