<svg width="48" height="48" viewBox="0 0 48 48" fill="none" xmlns="http://www.w3.org/2000/svg">
<circle cx="24" cy="24" r="24" fill="white"/>
<mask id="mask0" mask-type="alpha" maskUnits="userSpaceOnUse" x="0" y="0" width="48" height="48">
<circle cx="24" cy="24" r="24" fill="#C4C4C4"/>
</mask>
<g mask="url(#mask0)">
<path d="M15.9386 38.0671L38.2568 32.087C41.0527 31.3379 42.7118 28.4642 41.9626 25.6683L38.3287 12.1062C37.5796 9.31067 34.7058 7.65116 31.9099 8.40031L9.59182 14.3804C6.79604 15.13 5.13691 18.0037 5.88596 20.7992L9.51992 34.3613C10.2691 37.1572 13.1428 38.8163 15.9386 38.0671Z" fill="#00C5FD"/>
<path d="M38.2568 32.087L15.9387 38.0672C13.1428 38.8163 10.2691 37.1572 9.51993 34.3613L20.3697 22.8591C22.0188 21.1109 24.513 20.4425 26.8154 21.132L41.9626 25.6683C42.7118 28.4642 41.0527 31.3379 38.2568 32.087Z" fill="#5AD6FF"/>
<path d="M31.9101 8.40081L9.59194 14.3809C6.79606 15.1301 5.13693 18.0038 5.88598 20.7993L21.0333 25.3356C23.3356 26.025 25.8298 25.3567 27.4789 23.6085L38.3287 12.1063C37.5796 9.31079 34.7059 7.65165 31.9101 8.40081Z" fill="#A4E7FF"/>
<path d="M1.16184 19.3002L-0.657201 19.7876C-1.83058 20.102 -2.52659 21.3081 -2.21219 22.4815C-1.89778 23.6549 -0.691976 24.3514 0.481406 24.037L2.30045 23.5496C3.47421 23.235 4.17022 22.029 3.85582 20.8556C3.54141 19.6822 2.33523 18.9858 1.16184 19.3002Z" fill="#D5DAE6"/>
<path d="M-2.19663 28.0402L3.12186 26.6151C4.29524 26.3007 5.50143 26.9971 5.81583 28.1705C6.13024 29.3439 5.43423 30.5499 4.26047 30.8644L-1.05803 32.2895C-2.23141 32.6039 -3.43721 31.9074 -3.75162 30.7341C-4.06603 29.5607 -3.37002 28.3546 -2.19663 28.0402Z" fill="#D5DAE6"/>
<path d="M-4.47548 36.7799L5.15413 34.1996C6.32751 33.8852 7.5337 34.5816 7.8481 35.755C8.16251 36.9284 7.4665 38.1345 6.29274 38.449L-3.33687 41.0292C-4.51026 41.3436 -5.71644 40.6472 -6.03085 39.4739C-6.34525 38.3005 -5.64886 37.0943 -4.47548 36.7799Z" fill="#D5DAE6"/>
</g>
</svg>
